<?xml version="1.0" standalone="no"?>
<!DOCTYPE svg PUBLIC "-//W3C//DTD SVG 20010904//EN"
 "http://www.w3.org/TR/2001/REC-SVG-20010904/DTD/svg10.dtd">
<svg version="1.0" xmlns="http://www.w3.org/2000/svg"
 width="115.770192pt" height="79.776002pt" viewBox="0 0 115.770192 79.776002"
 preserveAspectRatio="xMidYMid meet">
<metadata>
Created by potrace 1.16, written by Peter Selinger 2001-2019
</metadata>
<g transform="translate(7.190587,73.199212) scale(0.100000,-0.100000)"
fill="#000000" stroke="none">
<path d="M431 638 c-55 -27 -87 -89 -77 -149 l6 -39 -92 0 c-51 0 -110 -5
-131 -11 -51 -14 -105 -64 -121 -114 l-14 -40 269 -3 c148 -1 269 -5 269 -8 0
-13 -41 -84 -49 -84 -5 0 -14 13 -21 30 -21 52 -34 54 -59 10 -12 -22 -26 -40
-30 -40 -5 0 -14 13 -21 30 -21 52 -34 54 -59 9 -25 -44 -39 -42 -61 11 -7 17
-15 30 -19 30 -3 0 -17 -19 -30 -42 l-23 -41 -19 24 c-10 13 -21 32 -25 42 -7
22 -21 22 -28 0 -4 -10 -15 -29 -25 -42 l-18 -24 -27 44 c-21 36 -26 40 -26
21 0 -31 26 -92 53 -121 49 -53 86 -61 293 -61 l190 0 59 -32 c51 -27 69 -32
134 -32 91 0 155 28 214 93 53 59 70 104 71 191 1 84 -21 143 -72 196 -16 16
-34 45 -41 66 -35 107 -166 140 -245 61 l-27 -26 -21 22 c-24 27 -77 51 -110
51 -13 0 -43 -10 -67 -22z m74 -129 c0 -17 -6 -24 -20 -24 -23 0 -33 34 -13
46 20 13 33 5 33 -22z m263 7 c5 -24 -10 -38 -31 -30 -20 7 -22 25 -5 42 16
16 32 10 36 -12z m63 -195 c35 -36 37 -61 6 -97 -17 -19 -33 -27 -56 -27 -82
0 -103 112 -26 143 34 14 45 11 76 -19z m-181 -47 c0 -10 -43 -84 -49 -84 -6
0 -51 75 -51 84 0 4 23 6 50 6 28 0 50 -3 50 -6z"/>
</g>
</svg>
