<?xml version="1.0" standalone="no"?>
<!DOCTYPE svg PUBLIC "-//W3C//DTD SVG 20010904//EN"
 "http://www.w3.org/TR/2001/REC-SVG-20010904/DTD/svg10.dtd">
<svg version="1.0" xmlns="http://www.w3.org/2000/svg"
 width="110.710024pt" height="87.433755pt" viewBox="0 0 110.710024 87.433755"
 preserveAspectRatio="xMidYMid meet">
<metadata>
Created by potrace 1.16, written by Peter Selinger 2001-2019
</metadata>
<g transform="translate(7.371873,81.164691) scale(0.100000,-0.100000)"
fill="#000000" stroke="none">
<path d="M207 722 c-10 -10 -17 -35 -17 -55 0 -32 -4 -39 -38 -56 -21 -11 -55
-38 -76 -61 -66 -73 -70 -91 -74 -327 l-4 -213 41 0 41 0 0 110 0 110 84 0
c100 0 138 -20 174 -90 31 -62 29 -78 -10 -82 -25 -2 -33 -8 -33 -23 0 -19 8
-20 108 -23 l107 -3 0 106 0 105 94 0 c80 0 98 -3 127 -23 41 -27 79 -82 79
-113 0 -18 -6 -23 -32 -26 -25 -2 -33 -8 -33 -23 0 -19 8 -20 108 -23 l108 -3
-3 223 c-3 223 -3 223 -30 270 -16 25 -45 60 -65 77 -66 54 -103 61 -345 61
l-218 0 0 33 c0 58 -58 88 -93 49z m1 -310 c3 -17 -2 -22 -17 -22 -14 0 -21 6
-21 18 0 38 33 41 38 4z"/>
</g>
</svg>
