<?xml version="1.0" standalone="no"?>
<!DOCTYPE svg PUBLIC "-//W3C//DTD SVG 20010904//EN"
 "http://www.w3.org/TR/2001/REC-SVG-20010904/DTD/svg10.dtd">
<svg version="1.0" xmlns="http://www.w3.org/2000/svg"
 width="118.265641pt" height="91.304809pt" viewBox="0 0 118.265641 91.304809"
 preserveAspectRatio="xMidYMid meet">
<metadata>
Created by potrace 1.16, written by Peter Selinger 2001-2019
</metadata>
<g transform="translate(7.458720,85.137479) scale(0.100000,-0.100000)"
fill="#000000" stroke="none">
<path d="M428 765 c-114 -42 -218 -172 -218 -271 l0 -23 -36 24 c-43 29 -100
33 -146 9 l-31 -16 61 -61 60 -62 -29 -45 c-41 -62 -67 -138 -75 -214 l-7 -66
36 0 c33 0 39 4 57 40 26 51 83 88 149 99 54 9 56 7 41 -33 -9 -25 -9 -26 33
-26 39 1 45 5 86 56 24 30 46 53 48 51 2 -3 -5 -27 -16 -56 l-21 -51 43 0 c41
0 44 3 105 80 l63 80 160 0 c178 0 170 4 148 -73 -19 -69 -110 -147 -172 -147
-28 0 -47 -17 -40 -36 8 -20 90 -17 139 5 188 85 228 319 81 477 l-52 56 -68
-37 c-37 -20 -67 -33 -67 -28 0 5 29 37 65 73 62 61 64 65 47 83 -9 11 -39 31
-67 45 -41 21 -64 26 -130 26 l-80 1 -16 -115 c-16 -124 -21 -120 -34 30 -12
138 -13 140 -48 139 -18 0 -49 -7 -69 -14z m-198 -440 c18 -22 8 -50 -19 -50
-32 0 -49 28 -32 49 17 20 35 20 51 1z"/>
</g>
</svg>
