<?xml version="1.0" standalone="no"?>
<!DOCTYPE svg PUBLIC "-//W3C//DTD SVG 20010904//EN"
 "http://www.w3.org/TR/2001/REC-SVG-20010904/DTD/svg10.dtd">
<svg version="1.0" xmlns="http://www.w3.org/2000/svg"
 width="105.314844pt" height="110.401276pt" viewBox="0 0 105.314844 110.401276"
 preserveAspectRatio="xMidYMid meet">
<metadata>
Created by potrace 1.16, written by Peter Selinger 2001-2019
</metadata>
<g transform="translate(6.770521,103.200000) scale(0.100000,-0.100000)"
fill="#000000" stroke="none">
<path d="M27 946 c-8 -8 -17 -45 -21 -83 -12 -125 39 -225 140 -274 l46 -22
-48 -48 -47 -48 27 -11 c19 -7 40 -7 62 -1 19 5 34 9 34 8 1 -1 25 -99 55
-217 64 -256 59 -250 180 -250 125 0 122 -4 186 253 l53 214 30 -9 c21 -6 41
-6 60 2 l29 11 -47 48 -47 48 43 19 c61 28 95 60 125 118 44 87 30 256 -22
256 -26 0 -42 -29 -48 -89 -4 -34 -14 -75 -22 -91 -31 -60 -33 -60 -336 -60
l-277 0 -31 26 c-32 27 -51 76 -51 134 0 39 -23 80 -45 80 -7 0 -20 -6 -28
-14z m351 -559 c4 -20 -25 -34 -40 -19 -15 15 -1 44 19 40 10 -2 19 -11 21
-21z m200 0 c4 -20 -25 -34 -40 -19 -15 15 -1 44 19 40 10 -2 19 -11 21 -21z
m-79 -111 c38 -65 38 -76 6 -76 -24 0 -25 -3 -25 -56 0 -34 4 -53 10 -49 6 3
10 13 10 21 0 8 7 14 15 14 22 0 19 -36 -5 -60 -26 -26 -68 -25 -97 2 -26 24
-31 58 -8 58 8 0 15 -6 15 -14 0 -7 7 -19 15 -26 13 -11 15 -5 15 49 l0 61
-30 0 c-16 0 -30 4 -30 9 0 18 65 121 76 121 1 0 16 -24 33 -54z"/>
</g>
</svg>
