<?xml version="1.0" standalone="no"?>
<!DOCTYPE svg PUBLIC "-//W3C//DTD SVG 20010904//EN"
 "http://www.w3.org/TR/2001/REC-SVG-20010904/DTD/svg10.dtd">
<svg version="1.0" xmlns="http://www.w3.org/2000/svg"
 width="112.293071pt" height="80.677854pt" viewBox="0 0 112.293071 80.677854"
 preserveAspectRatio="xMidYMid meet">
<metadata>
Created by potrace 1.16, written by Peter Selinger 2001-2019
</metadata>
<g transform="translate(6.321318,74.158065) scale(0.100000,-0.100000)"
fill="#000000" stroke="none">
<path d="M260 651 c-98 -52 -194 -173 -231 -290 -26 -83 -27 -206 -4 -290 10
-33 19 -61 22 -61 2 0 17 15 34 34 34 40 87 61 133 53 27 -4 34 0 59 35 38 53
107 85 148 67 33 -13 59 -54 59 -94 0 -14 5 -25 10 -25 6 0 10 14 10 31 0 41
15 66 51 85 52 26 138 -6 177 -67 17 -28 25 -31 74 -32 43 -2 62 -8 91 -29 19
-16 39 -38 43 -50 6 -20 10 -15 26 32 44 125 31 281 -34 403 -36 67 -125 161
-184 194 l-39 21 0 -71 c-1 -81 -29 -149 -84 -201 l-31 -30 0 115 -1 114 -32
-38 c-44 -51 -74 -50 -121 5 l-36 42 0 -119 0 -118 -25 23 c-14 14 -40 52 -56
86 -27 54 -30 71 -27 128 1 36 3 66 3 66 0 -1 -16 -9 -35 -19z m218 -194 c2
-12 -3 -17 -17 -17 -12 0 -21 6 -21 13 0 31 32 34 38 4z m80 0 c2 -12 -3 -17
-17 -17 -12 0 -21 6 -21 13 0 31 32 34 38 4z m-24 -92 c-5 -12 -10 -13 -20 -4
-11 9 -17 9 -28 0 -10 -9 -15 -8 -20 4 -4 12 3 15 34 15 31 0 38 -3 34 -15z"/>
</g>
</svg>
