<?xml version="1.0" standalone="no"?>
<!DOCTYPE svg PUBLIC "-//W3C//DTD SVG 20010904//EN"
 "http://www.w3.org/TR/2001/REC-SVG-20010904/DTD/svg10.dtd">
<svg version="1.0" xmlns="http://www.w3.org/2000/svg"
 width="101.400000pt" height="92.148041pt" viewBox="0 0 101.400000 92.148041"
 preserveAspectRatio="xMidYMid meet">
<metadata>
Created by potrace 1.16, written by Peter Selinger 2001-2019
</metadata>
<g transform="translate(6.200000,85.200000) scale(0.100000,-0.100000)"
fill="#000000" stroke="none">
<path d="M180 758 c-17 -19 -20 -35 -20 -127 l0 -106 -75 -88 c-41 -49 -75
-93 -75 -98 0 -5 29 -9 65 -9 36 0 65 -3 65 -6 0 -3 -29 -40 -65 -82 -36 -41
-65 -79 -65 -84 0 -4 39 -8 86 -8 l86 0 41 -45 c76 -87 192 -122 299 -91 61
17 136 70 157 110 14 25 17 26 108 26 51 0 93 4 93 8 0 5 -29 43 -65 84 -36
42 -65 79 -65 82 0 3 29 6 65 6 36 0 65 4 65 9 0 5 -36 49 -80 97 l-80 89 0
106 c0 92 -3 108 -20 127 -41 44 -130 15 -130 -41 0 -15 -4 -17 -17 -11 -37
16 -168 16 -206 0 -36 -15 -37 -15 -37 8 0 35 -35 66 -75 66 -22 0 -41 -8 -55
-22z m135 -219 c0 -17 -6 -24 -20 -24 -23 0 -33 34 -13 46 20 13 33 5 33 -22z
m315 15 c11 -12 10 -18 -3 -32 -16 -15 -18 -15 -34 0 -13 14 -14 20 -3 32 7 9
16 16 20 16 4 0 13 -7 20 -16z m-62 -57 c8 -9 -2 -35 -38 -97 -31 -54 -50 -97
-50 -117 0 -36 18 -44 40 -18 15 18 36 19 46 3 4 -7 -5 -22 -24 -37 -16 -15
-33 -38 -37 -53 -9 -36 -28 -50 -62 -46 -22 2 -30 10 -39 36 -6 19 -25 47 -43
64 -45 42 -27 61 29 29 l40 -22 0 32 c0 20 -19 65 -51 121 -28 49 -48 95 -45
103 7 20 218 22 234 2z"/>
</g>
</svg>
