<?xml version="1.0" standalone="no"?>
<!DOCTYPE svg PUBLIC "-//W3C//DTD SVG 20010904//EN"
 "http://www.w3.org/TR/2001/REC-SVG-20010904/DTD/svg10.dtd">
<svg version="1.0" xmlns="http://www.w3.org/2000/svg"
 width="124.394677pt" height="94.195922pt" viewBox="0 0 124.394677 94.195922"
 preserveAspectRatio="xMidYMid meet">
<metadata>
Created by potrace 1.16, written by Peter Selinger 2001-2019
</metadata>
<g transform="translate(6.495190,87.114697) scale(0.100000,-0.100000)"
fill="#000000" stroke="none">
<path d="M146 775 c-9 -14 -25 -25 -36 -25 -15 0 -20 -7 -20 -28 0 -16 -6 -36
-13 -47 -13 -17 -15 -17 -30 5 -8 12 -20 19 -26 15 -19 -11 -12 -61 15 -100
28 -42 28 -40 -9 -137 -25 -65 -25 -68 -8 -89 17 -21 19 -21 119 -9 56 7 105
10 108 7 4 -3 34 -84 69 -179 34 -94 69 -177 78 -182 26 -17 43 9 80 119 l34
100 157 0 157 0 47 -104 c51 -111 70 -134 96 -112 13 11 16 34 16 110 0 170
13 441 21 441 4 0 17 -14 29 -30 28 -39 38 -136 20 -190 -11 -34 -11 -42 4
-65 17 -26 18 -26 37 -9 17 15 19 27 13 98 -9 136 -20 170 -69 215 -23 21 -56
46 -71 54 -41 21 -520 157 -553 157 -15 0 -36 -9 -46 -20 -25 -27 -51 -25 -81
7 -20 22 -28 25 -48 15 -14 -6 -28 -7 -37 -1 -23 14 -36 10 -53 -16z m47 -227
c6 -19 -3 -38 -18 -38 -18 0 -28 17 -21 35 7 18 33 20 39 3z"/>
</g>
</svg>
