<?xml version="1.0" standalone="no"?>
<!DOCTYPE svg PUBLIC "-//W3C//DTD SVG 20010904//EN"
 "http://www.w3.org/TR/2001/REC-SVG-20010904/DTD/svg10.dtd">
<svg version="1.0" xmlns="http://www.w3.org/2000/svg"
 width="118.373553pt" height="121.200718pt" viewBox="0 0 118.373553 121.200718"
 preserveAspectRatio="xMidYMid meet">
<metadata>
Created by potrace 1.16, written by Peter Selinger 2001-2019
</metadata>
<g transform="translate(6.173553,115.000718) scale(0.100000,-0.100000)"
fill="#000000" stroke="none">
<path d="M214 1051 l-6 -31 -83 0 c-67 0 -85 -3 -98 -18 -20 -22 -23 -72 -4
-72 16 0 47 32 47 48 0 7 7 12 15 12 24 0 17 -29 -14 -60 -16 -16 -26 -32 -23
-35 3 -3 23 -5 44 -5 21 0 38 -2 38 -5 0 -3 -21 -79 -46 -171 -30 -112 -43
-175 -39 -195 9 -39 57 -88 94 -95 l31 -6 0 -204 0 -204 29 0 c17 0 32 4 36 9
4 7 55 262 55 278 0 2 118 2 262 1 l263 -3 80 -142 80 -143 38 0 c26 0 37 4
37 15 0 8 -44 134 -99 280 -54 146 -96 265 -94 265 3 0 28 -20 56 -45 41 -36
54 -42 65 -32 12 10 0 25 -72 92 -81 75 -87 84 -112 157 -39 116 -103 162
-201 143 -36 -6 -104 -63 -114 -94 -4 -11 -9 -12 -28 -2 -51 28 -131 -12 -151
-74 -9 -28 -17 -35 -37 -35 l-25 0 3 197 c2 146 0 198 -9 201 -7 2 -15 -9 -18
-27z m-28 -62 c10 -17 -13 -36 -27 -22 -12 12 -4 33 11 33 5 0 12 -5 16 -11z"/>
</g>
</svg>
