<?xml version="1.0" standalone="no"?>
<!DOCTYPE svg PUBLIC "-//W3C//DTD SVG 20010904//EN"
 "http://www.w3.org/TR/2001/REC-SVG-20010904/DTD/svg10.dtd">
<svg version="1.0" xmlns="http://www.w3.org/2000/svg"
 width="114.220682pt" height="102.373530pt" viewBox="0 0 114.220682 102.373530"
 preserveAspectRatio="xMidYMid meet">
<metadata>
Created by potrace 1.16, written by Peter Selinger 2001-2019
</metadata>
<g transform="translate(6.109903,95.200000) scale(0.100000,-0.100000)"
fill="#000000" stroke="none">
<path d="M286 858 c-9 -12 -16 -32 -16 -44 0 -16 -28 -40 -113 -96 -130 -87
-152 -117 -145 -198 11 -109 101 -161 230 -131 31 7 38 6 43 -8 3 -10 -17 -95
-45 -190 -27 -95 -50 -177 -50 -182 0 -6 14 -9 32 -7 29 3 38 13 99 118 38 63
72 116 76 117 4 1 36 -33 70 -75 l62 -77 -36 -6 c-52 -9 -71 -49 -34 -69 26
-13 296 -13 361 1 68 15 127 62 163 129 25 48 28 64 25 121 -3 52 -10 77 -34
115 -27 44 -60 69 -309 231 -154 101 -286 183 -292 183 -8 0 -13 13 -13 29 0
31 -22 61 -45 61 -8 0 -21 -10 -29 -22z m-26 -198 c13 -9 13 -11 0 -20 -20
-13 -77 -13 -85 0 -3 6 -3 15 0 20 8 13 65 13 85 0z m-172 -153 c2 -12 -3 -17
-17 -17 -15 0 -21 6 -21 21 0 25 33 22 38 -4z"/>
</g>
</svg>
