<?xml version="1.0" standalone="no"?>
<!DOCTYPE svg PUBLIC "-//W3C//DTD SVG 20010904//EN"
 "http://www.w3.org/TR/2001/REC-SVG-20010904/DTD/svg10.dtd">
<svg version="1.0" xmlns="http://www.w3.org/2000/svg"
 width="120.075420pt" height="120.743947pt" viewBox="0 0 120.075420 120.743947"
 preserveAspectRatio="xMidYMid meet">
<metadata>
Created by potrace 1.16, written by Peter Selinger 2001-2019
</metadata>
<g transform="translate(6.927485,113.910711) scale(0.100000,-0.100000)"
fill="#000000" stroke="none">
<path d="M281 1024 c-164 -50 -189 -63 -197 -104 -4 -18 -19 -38 -40 -52 -49
-34 -55 -70 -13 -83 25 -8 39 1 39 26 0 10 5 19 11 19 7 0 10 -12 7 -29 -4
-25 0 -30 21 -34 14 -3 46 -26 70 -51 l44 -45 -18 -38 c-25 -52 -44 -321 -23
-334 26 -17 33 -8 63 79 l31 87 114 2 115 3 -95 -90 c-94 -88 -95 -89 -62 -90
21 0 88 28 195 81 l162 82 64 -11 c104 -18 161 -76 161 -164 0 -127 -98 -204
-206 -163 -54 21 -84 63 -84 118 0 31 7 46 34 73 44 44 94 47 132 8 26 -25 28
-46 12 -114 -6 -27 14 -25 36 3 46 62 12 152 -69 183 -100 38 -198 -28 -220
-148 -14 -74 33 -158 113 -205 62 -37 165 -39 227 -6 94 50 148 140 153 255 4
66 0 85 -22 135 -29 63 -84 125 -125 143 -17 7 -38 34 -61 77 -41 78 -119 161
-175 188 -33 15 -203 42 -290 45 -18 1 -16 3 9 22 45 34 69 112 50 162 -8 20
8 23 -163 -30z m-88 -95 c17 -23 11 -58 -9 -66 -8 -3 -25 -2 -39 1 -19 5 -25
13 -25 34 0 51 46 70 73 31z"/>
</g>
</svg>
