<?xml version="1.0" standalone="no"?>
<!DOCTYPE svg PUBLIC "-//W3C//DTD SVG 20010904//EN"
 "http://www.w3.org/TR/2001/REC-SVG-20010904/DTD/svg10.dtd">
<svg version="1.0" xmlns="http://www.w3.org/2000/svg"
 width="120.585218pt" height="105.322876pt" viewBox="0 0 120.585218 105.322876"
 preserveAspectRatio="xMidYMid meet">
<metadata>
Created by potrace 1.16, written by Peter Selinger 2001-2019
</metadata>
<g transform="translate(6.110936,98.221526) scale(0.100000,-0.100000)"
fill="#000000" stroke="none">
<path d="M137 828 c29 -188 73 -489 73 -503 0 -8 -6 -15 -14 -15 -8 0 -27 -10
-42 -23 -30 -26 -33 -47 -20 -144 l8 -62 -64 -3 c-59 -3 -63 -4 -66 -29 -6
-50 -6 -50 465 -47 484 3 464 1 533 70 43 42 63 91 63 153 0 107 -79 185 -187
185 -105 0 -178 -118 -131 -210 28 -54 123 -79 171 -45 26 17 48 69 40 90 -9
25 -23 17 -43 -22 -16 -34 -23 -38 -59 -41 -35 -3 -45 1 -63 24 -33 41 -28 89
13 130 28 28 41 34 78 34 98 0 158 -82 136 -185 -13 -59 -67 -118 -123 -134
-45 -12 -265 -15 -265 -3 0 4 7 16 15 26 8 11 15 39 15 63 0 37 -19 78 -131
278 -90 161 -129 241 -124 253 11 30 46 234 40 240 -10 11 -56 -18 -67 -43 -8
-18 -17 -24 -27 -19 -33 13 -91 16 -120 6 -27 -10 -32 -8 -43 11 -14 27 -38
46 -59 47 -13 0 -14 -9 -2 -82z m143 -64 c0 -9 -7 -14 -17 -12 -25 5 -28 28
-4 28 12 0 21 -6 21 -16z m93 1 c1 -5 -6 -11 -15 -13 -11 -2 -18 3 -18 13 0
17 30 18 33 0z m-33 -47 c0 -4 -4 -8 -10 -8 -5 0 -10 -10 -10 -22 1 -22 1 -22
15 -4 18 23 34 12 19 -12 -6 -9 -24 -17 -39 -17 -15 0 -33 8 -39 17 -13 21 1
38 15 18 8 -11 9 -8 4 13 -3 17 -1 35 7 44 10 13 14 13 25 -3 7 -10 13 -21 13
-26z m65 -188 c0 -18 -6 -26 -21 -28 -26 -4 -40 24 -23 45 18 21 44 11 44 -17z
m-107 -97 c-2 -10 -10 -18 -18 -18 -8 0 -16 8 -18 18 -2 12 3 17 18 17 15 0
20 -5 18 -17z m186 -36 c16 -25 -16 -56 -38 -37 -19 15 -20 32 -4 48 15 15 28
11 42 -11z m-133 -107 c40 -22 13 -89 -30 -75 -29 9 -36 42 -15 66 20 22 20
22 45 9z m157 -76 c41 -29 23 -84 -28 -84 -32 0 -50 17 -50 46 0 20 32 54 50
54 3 0 16 -7 28 -16z m-210 -103 c8 -4 12 -19 10 -32 -4 -34 -52 -34 -56 0 -5
32 20 49 46 32z"/>
</g>
</svg>
