<?xml version="1.0" standalone="no"?>
<!DOCTYPE svg PUBLIC "-//W3C//DTD SVG 20010904//EN"
 "http://www.w3.org/TR/2001/REC-SVG-20010904/DTD/svg10.dtd">
<svg version="1.0" xmlns="http://www.w3.org/2000/svg"
 width="111.291673pt" height="99.751076pt" viewBox="0 0 111.291673 99.751076"
 preserveAspectRatio="xMidYMid meet">
<metadata>
Created by potrace 1.16, written by Peter Selinger 2001-2019
</metadata>
<g transform="translate(6.091673,93.051076) scale(0.100000,-0.100000)"
fill="#000000" stroke="none">
<path d="M264 848 c-31 -14 -46 -52 -34 -83 6 -16 6 -25 0 -25 -5 0 -49 -34
-97 -75 -48 -41 -95 -75 -105 -75 -23 0 -23 -11 2 -53 25 -41 68 -62 114 -54
25 4 36 1 40 -10 12 -29 6 -55 -20 -89 -27 -34 -27 -64 0 -64 8 0 21 9 30 21
13 20 15 16 31 -58 24 -113 33 -137 65 -182 l29 -40 -37 -3 c-32 -3 -37 -6
-37 -28 l0 -25 140 1 c223 2 316 35 441 159 95 94 154 223 154 337 0 66 -56
99 -108 62 -18 -12 -22 -25 -23 -72 0 -31 -4 -66 -8 -77 -7 -17 -10 -14 -21
20 -16 51 -28 65 -52 65 -29 0 -32 -25 -8 -75 18 -37 21 -59 18 -116 -3 -58
-8 -73 -30 -95 l-26 -27 0 62 c0 90 -24 127 -208 319 -134 139 -160 171 -153
187 13 35 10 55 -16 80 -26 27 -47 30 -81 13z m21 -218 c0 -8 -10 -16 -22 -18
-18 -3 -23 2 -23 18 0 16 5 21 23 18 12 -2 22 -10 22 -18z"/>
</g>
</svg>
