<?xml version="1.0" standalone="no"?>
<!DOCTYPE svg PUBLIC "-//W3C//DTD SVG 20010904//EN"
 "http://www.w3.org/TR/2001/REC-SVG-20010904/DTD/svg10.dtd">
<svg version="1.0" xmlns="http://www.w3.org/2000/svg"
 width="94.077871pt" height="109.516471pt" viewBox="0 0 94.077871 109.516471"
 preserveAspectRatio="xMidYMid meet">
<metadata>
Created by potrace 1.16, written by Peter Selinger 2001-2019
</metadata>
<g transform="translate(6.200000,103.200000) scale(0.100000,-0.100000)"
fill="#000000" stroke="none">
<path d="M212 948 c-7 -7 -12 -20 -12 -29 0 -10 -11 -19 -28 -22 -39 -8 -162
-145 -162 -181 0 -54 103 -78 125 -28 10 22 35 31 35 11 0 -6 -5 -20 -11 -31
-9 -17 -6 -32 17 -79 l28 -59 -28 -29 c-16 -16 -25 -34 -22 -40 10 -16 42 -13
56 4 17 21 27 19 35 -6 11 -35 77 -101 120 -120 29 -13 65 -19 128 -19 48 0
87 -4 87 -8 0 -13 -54 -41 -98 -50 -30 -7 -85 -5 -193 8 -158 19 -195 16 -231
-17 -82 -74 -53 -213 49 -242 37 -11 328 22 392 44 149 50 271 199 301 364 24
132 -16 259 -98 316 -42 29 -48 30 -172 33 -100 3 -134 0 -158 -12 l-29 -15
-6 45 c-3 33 -13 54 -36 78 -17 17 -31 41 -31 52 0 22 -18 44 -35 44 -6 0 -16
-5 -23 -12z m-12 -123 c13 -16 6 -35 -15 -35 -18 0 -28 17 -21 35 7 19 20 19
36 0z m-130 -110 c0 -8 -4 -15 -9 -15 -13 0 -22 16 -14 24 11 11 23 6 23 -9z
m523 -55 c30 -11 65 -32 80 -48 40 -42 73 -132 48 -132 -13 0 -312 179 -331
198 -13 13 -5 14 68 8 45 -4 106 -15 135 -26z"/>
</g>
</svg>
