<?xml version="1.0" standalone="no"?>
<!DOCTYPE svg PUBLIC "-//W3C//DTD SVG 20010904//EN"
 "http://www.w3.org/TR/2001/REC-SVG-20010904/DTD/svg10.dtd">
<svg version="1.0" xmlns="http://www.w3.org/2000/svg"
 width="84.203130pt" height="96.209051pt" viewBox="0 0 84.203130 96.209051"
 preserveAspectRatio="xMidYMid meet">
<metadata>
Created by potrace 1.16, written by Peter Selinger 2001-2019
</metadata>
<g transform="translate(6.101565,89.200000) scale(0.100000,-0.100000)"
fill="#000000" stroke="none">
<path d="M12 593 c3 -219 4 -230 28 -278 33 -68 231 -274 287 -299 40 -18 44
-18 86 -2 37 14 63 39 146 139 150 180 145 167 149 440 2 163 0 227 -8 227 -6
0 -37 -18 -69 -39 -57 -39 -57 -39 -82 -20 -39 30 -119 53 -189 53 -70 0 -150
-23 -189 -53 -25 -19 -25 -19 -82 20 -32 21 -63 39 -69 39 -8 0 -10 -64 -8
-227z m408 152 c0 -24 -5 -35 -15 -35 -10 0 -15 11 -15 35 0 24 5 35 15 35 10
0 15 -11 15 -35z m-190 -51 c0 -24 -4 -34 -12 -32 -24 8 -22 68 2 68 5 0 10
-16 10 -36z m108 -24 c-4 -67 -22 -69 -26 -2 -2 42 0 52 13 52 13 0 15 -10 13
-50z m178 35 c8 -20 -4 -65 -16 -65 -12 0 -24 45 -16 65 7 19 25 19 32 0z
m-378 -77 c-2 -35 -7 -63 -13 -63 -5 0 -11 28 -13 63 -2 51 0 62 13 62 13 0
15 -11 13 -62z m467 11 c0 -32 -4 -44 -15 -44 -16 0 -26 54 -16 82 12 30 31 6
31 -38z m-387 -132 c4 -20 -25 -34 -40 -19 -15 15 -1 44 19 40 10 -2 19 -11
21 -21z m330 0 c4 -20 -25 -34 -40 -19 -15 15 -1 44 19 40 10 -2 19 -11 21
-21z m-155 -62 c15 -25 27 -48 27 -50 0 -3 -27 -5 -60 -5 -33 0 -60 2 -60 5 0
8 55 95 60 95 3 0 17 -20 33 -45z m106 -144 c12 -8 10 -16 -13 -50 -16 -23
-32 -41 -36 -41 -4 0 -10 14 -13 30 -6 30 -7 30 -76 30 l-70 0 -7 -35 c-3 -19
-9 -33 -13 -30 -18 11 -62 85 -56 94 8 14 264 15 284 2z"/>
</g>
</svg>
