<?xml version="1.0" standalone="no"?>
<!DOCTYPE svg PUBLIC "-//W3C//DTD SVG 20010904//EN"
 "http://www.w3.org/TR/2001/REC-SVG-20010904/DTD/svg10.dtd">
<svg version="1.0" xmlns="http://www.w3.org/2000/svg"
 width="103.224562pt" height="107.262962pt" viewBox="0 0 103.224562 107.262962"
 preserveAspectRatio="xMidYMid meet">
<metadata>
Created by potrace 1.16, written by Peter Selinger 2001-2019
</metadata>
<g transform="translate(7.024562,100.174220) scale(0.100000,-0.100000)"
fill="#000000" stroke="none">
<path d="M620 922 c0 -4 16 -24 36 -43 20 -18 54 -56 76 -82 49 -58 44 -67
-44 -79 -34 -4 -79 -17 -99 -27 l-36 -19 -19 56 c-10 31 -29 69 -42 84 l-24
28 -223 0 c-230 0 -255 -4 -240 -41 3 -8 79 -58 169 -111 l164 -98 20 -60 c11
-33 18 -62 14 -64 -4 -2 -69 -28 -145 -57 l-139 -52 54 -54 54 -54 38 16 c21
9 40 14 43 12 2 -3 -4 -21 -14 -41 l-17 -37 55 -54 54 -55 54 143 c30 78 55
143 56 144 1 2 30 -7 64 -20 l63 -22 96 -162 c56 -93 105 -165 116 -169 42
-14 47 16 44 243 -3 207 -3 212 -27 237 -13 14 -52 35 -86 46 -35 12 -70 29
-79 39 -16 18 -15 20 10 40 15 11 40 21 56 21 85 0 168 86 168 174 0 59 -71
100 -131 76 -27 -12 -33 -10 -74 19 -43 31 -65 39 -65 23z m206 -83 c3 -6 0
-18 -9 -26 -18 -18 -37 -9 -37 18 0 21 34 27 46 8z"/>
</g>
</svg>
