<?xml version="1.0" standalone="no"?>
<!DOCTYPE svg PUBLIC "-//W3C//DTD SVG 20010904//EN"
 "http://www.w3.org/TR/2001/REC-SVG-20010904/DTD/svg10.dtd">
<svg version="1.0" xmlns="http://www.w3.org/2000/svg"
 width="108.348018pt" height="113.866475pt" viewBox="0 0 108.348018 113.866475"
 preserveAspectRatio="xMidYMid meet">
<metadata>
Created by potrace 1.16, written by Peter Selinger 2001-2019
</metadata>
<g transform="translate(6.147974,107.666475) scale(0.100000,-0.100000)"
fill="#000000" stroke="none">
<path d="M23 1003 c-17 -6 -17 -40 0 -50 6 -4 27 -28 46 -52 l34 -44 -27 5
c-42 8 -43 -16 0 -67 33 -41 36 -48 25 -71 -15 -35 -16 -34 31 -34 l41 0 -6
-117 c-4 -65 -10 -200 -13 -300 l-7 -181 -28 -6 c-31 -6 -47 -39 -29 -61 11
-13 69 -15 367 -15 380 0 383 0 441 54 50 45 52 58 52 326 0 279 1 276 -65
218 -66 -57 -98 -152 -111 -326 l-7 -93 -42 -24 c-52 -31 -57 -31 -49 0 13 54
-9 98 -167 335 -87 132 -159 242 -159 244 0 2 16 4 36 3 27 -1 42 5 55 22 24
30 19 36 -38 50 -34 9 -58 24 -89 57 -39 43 -45 45 -88 43 -35 -2 -61 4 -106
26 -33 17 -60 35 -60 41 0 14 -20 23 -37 17z m255 -146 c4 -20 -25 -34 -40
-19 -15 15 -1 44 19 40 10 -2 19 -11 21 -21z m22 -507 c20 -53 21 -65 10 -109
-11 -47 -7 -79 15 -134 6 -15 0 -17 -54 -17 -42 0 -61 4 -61 12 0 12 64 308
66 308 1 0 12 -27 24 -60z"/>
</g>
</svg>
