<?xml version="1.0" standalone="no"?>
<!DOCTYPE svg PUBLIC "-//W3C//DTD SVG 20010904//EN"
 "http://www.w3.org/TR/2001/REC-SVG-20010904/DTD/svg10.dtd">
<svg version="1.0" xmlns="http://www.w3.org/2000/svg"
 width="112.734315pt" height="97.878186pt" viewBox="0 0 112.734315 97.878186"
 preserveAspectRatio="xMidYMid meet">
<metadata>
Created by potrace 1.16, written by Peter Selinger 2001-2019
</metadata>
<g transform="translate(6.034315,91.178186) scale(0.100000,-0.100000)"
fill="#000000" stroke="none">
<path d="M125 775 c-60 -35 -111 -69 -113 -75 -2 -6 22 -10 66 -10 l70 0 7
-67 c10 -89 38 -200 66 -255 58 -116 122 -160 244 -168 l80 -5 3 -67 3 -67
-48 -3 c-44 -3 -48 -5 -48 -28 0 -24 2 -25 70 -25 l70 0 3 97 3 98 197 2 197
3 0 24 c0 22 -7 26 -75 41 -41 9 -100 29 -130 45 -112 61 -274 249 -369 431
-38 71 -71 94 -138 94 -41 0 -64 -10 -158 -65z m175 -35 c0 -24 -25 -33 -40
-14 -10 11 -10 17 0 28 15 19 40 10 40 -14z m69 -227 c27 -100 101 -153 213
-153 74 0 98 -6 98 -25 0 -29 -95 -34 -181 -9 -41 12 -66 28 -104 67 -49 50
-84 124 -70 147 13 22 35 8 44 -27z"/>
</g>
</svg>
