<?xml version="1.0" standalone="no"?>
<!DOCTYPE svg PUBLIC "-//W3C//DTD SVG 20010904//EN"
 "http://www.w3.org/TR/2001/REC-SVG-20010904/DTD/svg10.dtd">
<svg version="1.0" xmlns="http://www.w3.org/2000/svg"
 width="72.400000pt" height="114.438775pt" viewBox="0 0 72.400000 114.438775"
 preserveAspectRatio="xMidYMid meet">
<metadata>
Created by potrace 1.16, written by Peter Selinger 2001-2019
</metadata>
<g transform="translate(6.200000,107.200000) scale(0.100000,-0.100000)"
fill="#000000" stroke="none">
<path d="M17 993 c-4 -3 -7 -165 -7 -359 l0 -352 138 -141 c75 -78 144 -141
152 -141 8 0 77 63 153 140 l137 140 0 344 c0 190 -3 351 -6 360 -3 9 -16 16
-29 16 -18 0 -29 -16 -65 -92 -23 -51 -44 -94 -45 -96 -2 -2 -24 4 -49 12 -59
20 -133 20 -192 0 -25 -8 -47 -14 -49 -12 -1 2 -22 45 -45 96 -35 75 -47 92
-65 92 -12 0 -25 -3 -28 -7z m151 -336 c4 -20 -25 -34 -40 -19 -15 15 -1 44
19 40 10 -2 19 -11 21 -21z m310 0 c4 -20 -25 -34 -40 -19 -15 15 -1 44 19 40
10 -2 19 -11 21 -21z m-358 -111 c0 -3 -4 -8 -10 -11 -5 -3 -10 -1 -10 4 0 6
5 11 10 11 6 0 10 -2 10 -4z m60 0 c0 -3 -4 -8 -10 -11 -5 -3 -10 -1 -10 4 0
6 5 11 10 11 6 0 10 -2 10 -4z m270 0 c0 -3 -4 -8 -10 -11 -5 -3 -10 -1 -10 4
0 6 5 11 10 11 6 0 10 -2 10 -4z m60 0 c0 -3 -4 -8 -10 -11 -5 -3 -10 -1 -10
4 0 6 5 11 10 11 6 0 10 -2 10 -4z m-159 -60 c-29 -50 -30 -56 -15 -70 8 -9
20 -16 25 -16 23 0 49 22 49 40 0 13 7 20 20 20 30 0 25 -36 -9 -71 -33 -32
-65 -37 -99 -13 -20 14 -24 14 -44 0 -12 -9 -33 -16 -46 -16 -29 0 -82 51 -82
79 0 31 36 28 44 -3 6 -26 33 -40 59 -30 28 10 27 33 -3 84 l-29 50 80 0 80 0
-30 -54z m-201 10 c0 -3 -4 -8 -10 -11 -5 -3 -10 -1 -10 4 0 6 5 11 10 11 6 0
10 -2 10 -4z m330 0 c0 -3 -4 -8 -10 -11 -5 -3 -10 -1 -10 4 0 6 5 11 10 11 6
0 10 -2 10 -4z"/>
</g>
</svg>
