<?xml version="1.0" standalone="no"?>
<!DOCTYPE svg PUBLIC "-//W3C//DTD SVG 20010904//EN"
 "http://www.w3.org/TR/2001/REC-SVG-20010904/DTD/svg10.dtd">
<svg version="1.0" xmlns="http://www.w3.org/2000/svg"
 width="122.030131pt" height="104.865871pt" viewBox="0 0 122.030131 104.865871"
 preserveAspectRatio="xMidYMid meet">
<metadata>
Created by potrace 1.16, written by Peter Selinger 2001-2019
</metadata>
<g transform="translate(6.200000,98.626182) scale(0.100000,-0.100000)"
fill="#000000" stroke="none">
<path d="M660 914 c-71 -11 -93 -18 -124 -39 -33 -23 -41 -24 -82 -15 -26 6
-83 11 -128 12 -70 2 -87 -1 -125 -22 -67 -38 -86 -70 -85 -141 l1 -59 -53 0
c-47 0 -54 -3 -54 -20 0 -26 16 -29 192 -32 l147 -3 54 -53 c63 -62 90 -66 95
-14 4 39 8 38 119 -13 117 -55 206 -153 227 -251 7 -30 6 -31 -33 -38 -58 -9
-101 -56 -127 -138 -25 -75 -23 -78 48 -78 48 0 105 30 134 71 l21 29 31 -40
c41 -50 122 -76 161 -51 11 7 10 20 -8 79 -23 77 -65 125 -119 137 -28 6 -30
9 -37 73 -17 161 -77 309 -161 396 -24 26 -44 54 -44 63 0 9 21 36 47 60 41
39 45 45 32 59 -15 14 -98 32 -129 28z m-420 -173 c0 -24 -25 -34 -40 -16 -15
18 -5 35 21 35 12 0 19 -7 19 -19z"/>
</g>
</svg>
