<?xml version="1.0" standalone="no"?>
<!DOCTYPE svg PUBLIC "-//W3C//DTD SVG 20010904//EN"
 "http://www.w3.org/TR/2001/REC-SVG-20010904/DTD/svg10.dtd">
<svg version="1.0" xmlns="http://www.w3.org/2000/svg"
 width="112.594445pt" height="86.909580pt" viewBox="0 0 112.594445 86.909580"
 preserveAspectRatio="xMidYMid meet">
<metadata>
Created by potrace 1.16, written by Peter Selinger 2001-2019
</metadata>
<g transform="translate(6.134340,80.015951) scale(0.100000,-0.100000)"
fill="#000000" stroke="none">
<path d="M124 719 c-37 -10 -101 -77 -110 -114 -4 -15 -4 -63 -2 -108 8 -138
58 -212 164 -238 38 -10 58 -23 89 -57 38 -43 121 -92 158 -92 21 0 21 0 1 59
-8 27 -14 64 -12 82 2 28 7 34 27 34 22 0 26 -7 37 -64 23 -110 93 -187 194
-211 145 -35 302 66 317 205 l6 45 -35 0 c-33 0 -36 -3 -48 -44 -13 -48 -67
-108 -113 -125 -16 -6 -45 -11 -65 -11 -38 0 -122 33 -122 47 0 4 17 18 38 31
20 13 48 38 62 57 17 22 37 36 60 40 94 18 147 74 176 184 34 134 2 230 -90
272 -69 31 -144 19 -196 -32 l-30 -31 -47 16 c-59 20 -148 20 -204 1 -41 -15
-43 -15 -68 9 -51 49 -118 65 -187 45z m234 -272 c4 -20 -25 -34 -40 -19 -15
15 -1 44 19 40 10 -2 19 -11 21 -21z m310 0 c4 -20 -25 -34 -40 -19 -15 15 -1
44 19 40 10 -2 19 -11 21 -21z"/>
</g>
</svg>
