<?xml version="1.0" standalone="no"?>
<!DOCTYPE svg PUBLIC "-//W3C//DTD SVG 20010904//EN"
 "http://www.w3.org/TR/2001/REC-SVG-20010904/DTD/svg10.dtd">
<svg version="1.0" xmlns="http://www.w3.org/2000/svg"
 width="84.306433pt" height="116.385262pt" viewBox="0 0 84.306433 116.385262"
 preserveAspectRatio="xMidYMid meet">
<metadata>
Created by potrace 1.16, written by Peter Selinger 2001-2019
</metadata>
<g transform="translate(7.101820,110.185262) scale(0.100000,-0.100000)"
fill="#000000" stroke="none">
<path d="M370 1017 c-13 -7 -29 -26 -34 -42 -6 -17 -11 -32 -12 -33 -2 -2 -27
3 -57 12 -71 21 -74 20 -92 -8 -14 -22 -13 -28 19 -103 29 -69 33 -85 26 -128
-4 -27 -11 -51 -16 -52 -5 -2 -27 -14 -49 -26 -68 -38 -53 -96 18 -69 29 11
29 11 23 -20 -3 -17 -6 -58 -6 -92 0 -57 -2 -62 -30 -78 -40 -23 -45 -55 -26
-151 22 -113 24 -107 -39 -107 -42 0 -60 -5 -75 -20 -24 -24 -25 -38 -4 -68
15 -21 21 -22 175 -22 173 0 183 2 240 57 23 22 39 31 44 24 10 -18 79 -50
131 -61 97 -22 133 17 40 44 -60 18 -123 72 -154 133 -11 21 -34 85 -51 142
l-31 104 0 289 c0 158 -3 288 -7 288 -5 0 -19 -6 -33 -13z m-45 -147 c0 -8
-10 -16 -22 -18 -18 -3 -23 2 -23 18 0 16 5 21 23 18 12 -2 22 -10 22 -18z"/>
</g>
</svg>
