<?xml version="1.0" standalone="no"?>
<!DOCTYPE svg PUBLIC "-//W3C//DTD SVG 20010904//EN"
 "http://www.w3.org/TR/2001/REC-SVG-20010904/DTD/svg10.dtd">
<svg version="1.0" xmlns="http://www.w3.org/2000/svg"
 width="113.124186pt" height="118.321318pt" viewBox="0 0 113.124186 118.321318"
 preserveAspectRatio="xMidYMid meet">
<metadata>
Created by potrace 1.16, written by Peter Selinger 2001-2019
</metadata>
<g transform="translate(7.152438,111.140835) scale(0.100000,-0.100000)"
fill="#000000" stroke="none">
<path d="M298 958 l-43 -83 -93 -3 c-76 -2 -93 0 -98 13 -3 8 -17 15 -30 15
-19 0 -24 -5 -24 -25 0 -21 5 -25 28 -25 20 0 41 -13 72 -45 l44 -45 -22 -23
c-12 -13 -22 -26 -22 -30 0 -4 20 -7 45 -7 l45 0 0 -148 0 -147 -33 -18 c-54
-29 -62 -50 -67 -187 l-5 -125 -42 -3 c-32 -2 -44 -8 -48 -23 -16 -49 -11 -49
429 -49 378 0 414 2 452 19 48 22 80 59 96 114 13 45 7 89 -63 459 -21 113
-39 219 -39 233 0 44 29 92 66 110 19 9 34 22 34 30 0 12 -21 15 -110 15 -126
0 -153 -9 -197 -67 l-28 -36 -5 -331 c-5 -328 -5 -330 -22 -276 -18 59 -109
399 -112 415 0 6 21 12 47 15 l49 5 -56 61 -55 61 -3 104 c-3 89 -5 104 -20
107 -13 2 -26 -14 -50 -63 l-33 -67 -5 63 c-7 95 -27 91 -82 -13z m70 -121 c4
-20 -25 -34 -40 -19 -15 15 -1 44 19 40 10 -2 19 -11 21 -21z m-8 -103 c0 -47
-45 -94 -89 -94 -24 0 -31 4 -31 20 0 14 7 20 22 20 31 0 58 29 58 62 0 21 5
28 20 28 16 0 20 -7 20 -36z"/>
</g>
</svg>
