<?xml version="1.0" standalone="no"?>
<!DOCTYPE svg PUBLIC "-//W3C//DTD SVG 20010904//EN"
 "http://www.w3.org/TR/2001/REC-SVG-20010904/DTD/svg10.dtd">
<svg version="1.0" xmlns="http://www.w3.org/2000/svg"
 width="118.579430pt" height="127.302630pt" viewBox="0 0 118.579430 127.302630"
 preserveAspectRatio="xMidYMid meet">
<metadata>
Created by potrace 1.16, written by Peter Selinger 2001-2019
</metadata>
<g transform="translate(7.200000,120.227581) scale(0.100000,-0.100000)"
fill="#000000" stroke="none">
<path d="M124 1115 c-4 -9 4 -25 20 -40 43 -40 36 -47 -58 -61 -48 -7 -86 -32
-86 -57 0 -35 28 -52 96 -57 l68 -5 50 -202 50 -202 -48 -237 c-31 -152 -44
-240 -38 -246 5 -5 24 -8 42 -6 32 3 34 6 94 145 l61 143 218 0 218 0 54 -117
c83 -179 75 -168 124 -171 24 -2 48 1 52 5 5 5 -24 104 -66 223 -49 139 -75
228 -75 257 0 48 -12 54 -46 22 l-22 -21 -173 57 c-95 31 -183 62 -196 69 -37
19 -193 373 -193 437 0 61 -14 70 -41 24 -21 -35 -22 -36 -36 -15 -13 19 -20
37 -22 63 -2 14 -42 7 -47 -8z m113 -131 c8 -21 -19 -46 -40 -38 -9 3 -17 17
-17 30 0 19 5 24 25 24 14 0 28 -7 32 -16z m185 -509 c10 -22 9 -29 -10 -47
-18 -19 -25 -20 -47 -10 -16 8 -25 20 -25 35 0 50 62 66 82 22z m333 -10 c17
-16 25 -35 25 -60 0 -25 -8 -44 -25 -60 -22 -23 -32 -25 -110 -25 -78 0 -88 2
-110 25 -17 16 -25 35 -25 60 0 25 8 44 25 60 22 23 32 25 110 25 78 0 88 -2
110 -25z"/>
</g>
</svg>
