<?xml version="1.0" standalone="no"?>
<!DOCTYPE svg PUBLIC "-//W3C//DTD SVG 20010904//EN"
 "http://www.w3.org/TR/2001/REC-SVG-20010904/DTD/svg10.dtd">
<svg version="1.0" xmlns="http://www.w3.org/2000/svg"
 width="118.811460pt" height="93.824166pt" viewBox="0 0 118.811460 93.824166"
 preserveAspectRatio="xMidYMid meet">
<metadata>
Created by potrace 1.16, written by Peter Selinger 2001-2019
</metadata>
<g transform="translate(6.584532,86.832496) scale(0.100000,-0.100000)"
fill="#000000" stroke="none">
<path d="M303 790 c-35 -14 -43 -42 -43 -157 0 -59 -3 -151 -6 -203 l-7 -96
-51 -12 c-163 -39 -233 -125 -163 -200 130 -141 724 -163 944 -36 136 79 77
188 -131 240 l-66 16 -2 211 -3 210 -26 20 c-36 26 -78 13 -99 -31 -12 -25
-19 -31 -35 -26 -49 15 -132 15 -172 1 -40 -14 -43 -13 -43 3 0 42 -56 76 -97
60z m105 -207 c5 -17 -26 -29 -40 -15 -6 6 -7 15 -3 22 9 14 37 9 43 -7z m272
-3 c0 -13 -7 -20 -20 -20 -13 0 -20 7 -20 20 0 13 7 20 20 20 13 0 20 -7 20
-20z m-50 -43 c0 -7 -20 -47 -45 -89 -41 -70 -58 -128 -37 -128 4 0 18 7 30
16 13 9 30 13 40 9 15 -6 13 -10 -13 -32 -16 -15 -34 -40 -40 -57 -8 -26 -15
-31 -40 -31 -25 0 -33 6 -47 37 -10 20 -27 42 -38 48 -22 12 -27 40 -7 40 7 0
22 -7 33 -15 58 -44 58 4 -1 106 -25 43 -45 85 -45 94 0 13 17 15 105 15 78 0
105 -3 105 -13z m250 -283 c64 -20 110 -50 110 -73 0 -23 -46 -53 -115 -74
-104 -32 -95 -39 -95 74 l0 99 28 -6 c15 -3 47 -12 72 -20z m-630 -75 l0 -91
-32 7 c-51 11 -125 45 -144 66 -17 19 -17 21 7 44 24 24 117 64 152 65 15 0
17 -11 17 -91z"/>
</g>
</svg>
