<?xml version="1.0" standalone="no"?>
<!DOCTYPE svg PUBLIC "-//W3C//DTD SVG 20010904//EN"
 "http://www.w3.org/TR/2001/REC-SVG-20010904/DTD/svg10.dtd">
<svg version="1.0" xmlns="http://www.w3.org/2000/svg"
 width="113.851518pt" height="109.262811pt" viewBox="0 0 113.851518 109.262811"
 preserveAspectRatio="xMidYMid meet">
<metadata>
Created by potrace 1.16, written by Peter Selinger 2001-2019
</metadata>
<g transform="translate(6.683138,102.106269) scale(0.100000,-0.100000)"
fill="#000000" stroke="none">
<path d="M102 933 c-64 -31 -95 -107 -72 -177 10 -33 52 -78 82 -89 9 -3 1
-17 -23 -43 -63 -67 -84 -118 -84 -209 0 -70 4 -87 30 -134 16 -30 46 -67 66
-84 19 -17 118 -68 218 -113 l183 -84 187 86 c204 93 247 125 287 209 18 38
24 67 24 120 0 82 -22 137 -80 206 l-38 45 32 18 c45 24 66 64 66 124 0 40 -6
57 -26 82 -71 84 -176 77 -239 -16 l-20 -30 -38 27 c-46 33 -133 53 -193 44
-24 -3 -69 -19 -101 -35 -32 -16 -59 -25 -61 -20 -9 25 -49 64 -78 76 -43 18
-81 17 -122 -3z m136 -68 c33 -38 28 -65 -21 -113 -48 -47 -72 -52 -110 -22
-50 39 -43 125 12 155 36 21 91 12 119 -20z m661 9 c26 -21 31 -33 31 -69 0
-36 -5 -48 -31 -69 -17 -14 -38 -26 -47 -26 -28 0 -102 81 -102 111 0 35 51
79 90 79 16 0 42 -11 59 -26z m-574 -269 c0 -22 -31 -33 -47 -17 -17 17 -1 44
24 40 15 -2 23 -10 23 -23z m410 0 c0 -22 -31 -33 -47 -17 -17 17 -1 44 24 40
15 -2 23 -10 23 -23z m-191 -174 c-31 -59 -27 -81 16 -81 25 0 33 5 41 30 14
38 39 40 39 3 0 -59 -86 -98 -130 -58 -15 14 -18 14 -30 0 -7 -8 -28 -15 -49
-15 -51 0 -87 38 -82 88 2 24 29 12 40 -18 8 -25 16 -30 41 -30 44 0 48 24 16
82 l-27 48 76 0 76 0 -27 -49z"/>
</g>
</svg>
