<?xml version="1.0" standalone="no"?>
<!DOCTYPE svg PUBLIC "-//W3C//DTD SVG 20010904//EN"
 "http://www.w3.org/TR/2001/REC-SVG-20010904/DTD/svg10.dtd">
<svg version="1.0" xmlns="http://www.w3.org/2000/svg"
 width="111.116941pt" height="85.050829pt" viewBox="0 0 111.116941 85.050829"
 preserveAspectRatio="xMidYMid meet">
<metadata>
Created by potrace 1.16, written by Peter Selinger 2001-2019
</metadata>
<g transform="translate(6.968939,77.665056) scale(0.100000,-0.100000)"
fill="#000000" stroke="none">
<path d="M790 702 c-8 -3 -22 -11 -31 -18 -11 -10 -24 -11 -50 -4 -117 34
-246 -16 -305 -117 l-26 -43 -91 0 c-105 0 -152 -17 -205 -70 -95 -95 -106
-233 -27 -341 37 -52 110 -93 181 -103 51 -7 93 18 138 81 28 41 29 43 12 62
-25 28 -18 79 16 104 23 17 31 18 57 8 55 -24 62 -88 12 -123 -10 -7 -25 -27
-34 -44 -9 -18 -28 -46 -43 -64 l-27 -32 199 4 c195 3 200 4 256 31 145 71
191 240 103 376 -13 20 -26 52 -30 71 -4 19 -18 54 -31 77 -21 36 -22 46 -12
67 20 46 -17 92 -62 78z m-166 -174 c8 -14 7 -21 -6 -34 -30 -30 -75 9 -48 42
16 18 39 15 54 -8z m-527 -174 c8 -21 -13 -42 -28 -27 -13 13 -5 43 11 43 6 0
13 -7 17 -16z"/>
</g>
</svg>
