<?xml version="1.0" standalone="no"?>
<!DOCTYPE svg PUBLIC "-//W3C//DTD SVG 20010904//EN"
 "http://www.w3.org/TR/2001/REC-SVG-20010904/DTD/svg10.dtd">
<svg version="1.0" xmlns="http://www.w3.org/2000/svg"
 width="116.217551pt" height="100.748134pt" viewBox="0 0 116.217551 100.748134"
 preserveAspectRatio="xMidYMid meet">
<metadata>
Created by potrace 1.16, written by Peter Selinger 2001-2019
</metadata>
<g transform="translate(6.200000,94.548134) scale(0.100000,-0.100000)"
fill="#000000" stroke="none">
<path d="M454 861 c-89 -55 -119 -174 -62 -246 26 -34 31 -29 -147 -140 -77
-48 -155 -102 -174 -119 -37 -34 -61 -82 -61 -121 0 -21 5 -25 30 -25 35 0 36
-4 10 -48 -11 -18 -20 -37 -20 -41 0 -19 54 -72 91 -91 36 -19 61 -20 424 -20
l385 0 0 268 0 268 31 23 c43 32 73 102 66 158 -6 55 -45 115 -88 135 -29 14
-36 15 -60 3 -59 -31 -107 -118 -95 -176 l6 -29 -93 0 -93 0 4 40 c7 68 -45
149 -109 173 -9 3 -29 -3 -45 -12z m-9 -386 c0 -11 -7 -21 -16 -23 -18 -3 -33
23 -23 39 10 17 39 5 39 -16z m280 0 c0 -11 -7 -21 -16 -23 -18 -3 -33 23 -23
39 10 17 39 5 39 -16z m-477 -128 l22 -32 -46 -3 c-25 -2 -48 -1 -51 2 -5 5
37 66 46 66 3 0 16 -15 29 -33z m-78 -144 c0 -10 -38 -73 -44 -73 -5 0 -46 65
-46 74 0 3 20 6 45 6 25 0 45 -3 45 -7z m100 0 c0 -10 -38 -73 -44 -73 -5 0
-46 65 -46 74 0 3 20 6 45 6 25 0 45 -3 45 -7z m100 0 c0 -10 -38 -73 -44 -73
-5 0 -46 65 -46 74 0 3 20 6 45 6 25 0 45 -3 45 -7z m100 0 c0 -10 -38 -73
-44 -73 -5 0 -46 65 -46 74 0 3 20 6 45 6 25 0 45 -3 45 -7z m100 0 c0 -10
-38 -73 -44 -73 -5 0 -46 65 -46 74 0 3 20 6 45 6 25 0 45 -3 45 -7z m100 0
c0 -10 -38 -73 -44 -73 -5 0 -46 65 -46 74 0 3 20 6 45 6 25 0 45 -3 45 -7z
m100 0 c0 -10 -38 -73 -44 -73 -5 0 -46 65 -46 74 0 3 20 6 45 6 25 0 45 -3
45 -7z"/>
</g>
</svg>
