<?xml version="1.0" standalone="no"?>
<!DOCTYPE svg PUBLIC "-//W3C//DTD SVG 20010904//EN"
 "http://www.w3.org/TR/2001/REC-SVG-20010904/DTD/svg10.dtd">
<svg version="1.0" xmlns="http://www.w3.org/2000/svg"
 width="126.262669pt" height="106.920479pt" viewBox="0 0 126.262669 106.920479"
 preserveAspectRatio="xMidYMid meet">
<metadata>
Created by potrace 1.16, written by Peter Selinger 2001-2019
</metadata>
<g transform="translate(6.062669,100.200000) scale(0.100000,-0.100000)"
fill="#000000" stroke="none">
<path d="M12 913 c2 -13 14 -19 38 -20 197 -14 342 -120 399 -291 27 -80 27
-112 1 -112 -14 0 -20 7 -20 23 0 13 -8 31 -18 41 -18 15 -20 15 -35 -2 -26
-28 -21 -61 42 -285 62 -220 77 -250 132 -261 37 -7 94 15 109 43 14 27 120
429 120 457 0 12 -8 32 -18 44 l-18 23 -22 -28 c-12 -15 -22 -34 -22 -41 0 -8
-7 -14 -16 -14 -35 0 13 155 74 235 72 95 209 165 323 165 42 0 49 3 49 20 0
18 -7 20 -72 20 -209 0 -383 -123 -457 -323 -11 -32 -21 -70 -21 -84 0 -38 -8
-24 -25 41 -56 216 -247 366 -465 366 -72 0 -81 -2 -78 -17z m614 -490 c-2
-10 -15 -56 -27 -103 -12 -47 -25 -89 -29 -93 -6 -6 -60 182 -60 208 0 3 27 5
61 5 53 0 60 -2 55 -17z m-151 -38 c0 -22 -31 -33 -47 -17 -17 17 -1 44 24 40
15 -2 23 -10 23 -23z m240 0 c0 -22 -31 -33 -47 -17 -17 17 -1 44 24 40 15 -2
23 -10 23 -23z m-117 -215 c27 -48 27 -50 2 -50 -15 0 -20 -7 -20 -25 0 -22 3
-25 25 -19 27 7 33 -4 13 -24 -16 -16 -80 -16 -96 0 -18 18 -14 31 8 25 16 -4
20 0 20 19 0 15 -6 24 -15 24 -8 0 -15 2 -15 5 0 12 41 85 48 85 4 0 17 -18
30 -40z"/>
</g>
</svg>
