<?xml version="1.0" standalone="no"?>
<!DOCTYPE svg PUBLIC "-//W3C//DTD SVG 20010904//EN"
 "http://www.w3.org/TR/2001/REC-SVG-20010904/DTD/svg10.dtd">
<svg version="1.0" xmlns="http://www.w3.org/2000/svg"
 width="104.812857pt" height="85.347330pt" viewBox="0 0 104.812857 85.347330"
 preserveAspectRatio="xMidYMid meet">
<metadata>
Created by potrace 1.16, written by Peter Selinger 2001-2019
</metadata>
<g transform="translate(6.717786,79.147330) scale(0.100000,-0.100000)"
fill="#000000" stroke="none">
<path d="M140 639 c-58 -44 -113 -88 -123 -98 -32 -31 3 -72 44 -51 10 6 19
17 19 25 0 8 5 15 10 15 13 0 13 -33 -1 -47 -21 -21 30 -43 103 -43 38 0 68
-3 68 -6 0 -4 -5 -24 -11 -45 -9 -30 -17 -39 -38 -41 -18 -2 -26 -9 -26 -23 0
-17 8 -20 50 -23 l50 -3 40 67 40 66 78 -5 c43 -3 80 -7 81 -9 2 -1 6 -19 9
-39 4 -29 2 -37 -16 -45 -12 -5 -22 -16 -22 -24 0 -12 18 -16 88 -18 l88 -3
35 35 c21 21 34 44 34 60 0 34 15 33 51 -3 33 -34 40 -91 13 -129 -28 -41 -66
-52 -176 -52 -221 0 -300 -38 -315 -148 -5 -37 -3 -42 13 -42 14 0 24 12 34
42 27 77 46 83 236 80 151 -3 169 -2 208 18 130 63 142 252 20 329 -32 21 -90
37 -245 70 -112 23 -205 44 -208 47 -3 3 2 10 12 15 9 6 17 14 17 19 0 16 -33
11 -59 -9 -22 -17 -61 -18 -61 -2 0 3 16 17 35 30 19 13 35 27 35 32 0 21 -22
15 -70 -21 -58 -43 -59 -44 -78 -31 -10 6 -4 16 27 37 40 28 54 55 29 53 -7 0
-60 -36 -118 -80z m28 -91 c-2 -13 -10 -23 -18 -23 -8 0 -16 10 -18 23 -3 17
2 22 18 22 16 0 21 -5 18 -22z"/>
</g>
</svg>
