<?xml version="1.0" standalone="no"?>
<!DOCTYPE svg PUBLIC "-//W3C//DTD SVG 20010904//EN"
 "http://www.w3.org/TR/2001/REC-SVG-20010904/DTD/svg10.dtd">
<svg version="1.0" xmlns="http://www.w3.org/2000/svg"
 width="108.895474pt" height="82.337028pt" viewBox="0 0 108.895474 82.337028"
 preserveAspectRatio="xMidYMid meet">
<metadata>
Created by potrace 1.16, written by Peter Selinger 2001-2019
</metadata>
<g transform="translate(6.870674,76.200000) scale(0.100000,-0.100000)"
fill="#000000" stroke="none">
<path d="M802 625 l-53 -65 -67 0 c-76 0 -150 -29 -191 -74 l-24 -26 -184 0
c-155 0 -183 2 -183 15 0 25 -45 48 -69 36 -34 -19 -37 -52 -7 -77 14 -13 26
-29 26 -36 0 -23 30 -58 49 -58 13 0 22 -13 31 -46 l13 -46 13 32 c16 36 11
37 145 -19 48 -20 88 -40 89 -46 1 -5 -43 -27 -97 -48 -54 -21 -106 -45 -115
-54 -24 -21 -23 -58 2 -83 18 -18 33 -20 148 -19 70 0 195 4 277 8 124 6 157
11 191 29 85 44 139 123 151 220 7 61 -9 118 -52 181 -33 50 -33 52 -19 86 18
44 18 88 -1 125 -9 17 -17 30 -18 30 -2 0 -27 -29 -55 -65z m-122 -190 c17
-21 -2 -65 -28 -65 -22 0 -42 19 -42 40 0 37 47 53 70 25z"/>
</g>
</svg>
