<?xml version="1.0" standalone="no"?>
<!DOCTYPE svg PUBLIC "-//W3C//DTD SVG 20010904//EN"
 "http://www.w3.org/TR/2001/REC-SVG-20010904/DTD/svg10.dtd">
<svg version="1.0" xmlns="http://www.w3.org/2000/svg"
 width="116.336207pt" height="113.359808pt" viewBox="0 0 116.336207 113.359808"
 preserveAspectRatio="xMidYMid meet">
<metadata>
Created by potrace 1.16, written by Peter Selinger 2001-2019
</metadata>
<g transform="translate(6.136207,106.200000) scale(0.100000,-0.100000)"
fill="#000000" stroke="none">
<path d="M344 935 l-29 -55 -127 0 c-74 0 -129 4 -133 10 -3 6 -15 10 -26 10
-29 0 -22 -42 9 -50 14 -3 43 -37 81 -93 54 -82 60 -87 75 -72 9 9 16 27 16
41 0 17 5 24 20 24 30 0 26 -51 -6 -89 l-25 -30 26 -38 25 -38 -51 -5 c-59 -6
-82 -27 -60 -54 10 -12 32 -16 86 -16 67 0 74 -2 90 -26 14 -22 15 -28 4 -35
-8 -5 -21 -9 -30 -9 -26 0 -70 -40 -85 -76 -21 -51 -17 -85 21 -173 l34 -81
-64 0 c-79 0 -95 -6 -95 -35 0 -31 15 -35 145 -35 l114 0 22 32 c12 18 24 35
25 37 2 1 19 -9 38 -24 66 -50 92 -54 349 -55 199 0 237 2 237 14 0 15 -39 31
-186 80 -45 15 -89 32 -98 39 -11 8 -28 58 -47 136 -16 68 -41 146 -56 173
-34 62 -107 129 -179 163 l-54 26 0 179 c0 169 -1 180 -19 180 -12 0 -28 -18
-47 -55z m-94 -114 c0 -26 -17 -36 -35 -21 -18 15 -8 40 16 40 12 0 19 -7 19
-19z"/>
</g>
</svg>
