<?xml version="1.0" standalone="no"?>
<!DOCTYPE svg PUBLIC "-//W3C//DTD SVG 20010904//EN"
 "http://www.w3.org/TR/2001/REC-SVG-20010904/DTD/svg10.dtd">
<svg version="1.0" xmlns="http://www.w3.org/2000/svg"
 width="109.325989pt" height="77.050208pt" viewBox="0 0 109.325989 77.050208"
 preserveAspectRatio="xMidYMid meet">
<metadata>
Created by potrace 1.16, written by Peter Selinger 2001-2019
</metadata>
<g transform="translate(6.149471,70.180075) scale(0.100000,-0.100000)"
fill="#000000" stroke="none">
<path d="M115 616 c-37 -16 -92 -77 -101 -111 -3 -14 -5 -60 -3 -102 3 -60 10
-91 32 -135 32 -66 65 -93 134 -110 36 -10 59 -24 88 -57 70 -77 177 -113 277
-92 59 13 143 66 172 109 13 20 32 31 69 40 104 25 166 112 175 247 6 92 0
115 -40 161 -72 82 -191 85 -263 9 l-24 -27 -48 18 c-59 23 -153 23 -207 0
-38 -16 -39 -16 -62 9 -47 51 -135 69 -199 41z m424 -171 c37 -19 41 -31 41
-129 0 -90 -15 -119 -65 -132 -64 -16 -115 41 -115 128 0 122 57 176 139 133z
m-181 -88 c4 -20 -25 -34 -40 -19 -15 15 -1 44 19 40 10 -2 19 -11 21 -21z
m312 3 c0 -24 -26 -38 -42 -22 -16 16 -2 42 22 42 13 0 20 -7 20 -20z m-215
-210 c3 -5 21 -10 40 -10 19 0 37 5 40 10 9 15 35 12 35 -4 0 -23 -41 -46 -80
-46 -39 0 -80 23 -80 46 0 16 36 19 45 4z"/>
</g>
</svg>
