<?xml version="1.0" standalone="no"?>
<!DOCTYPE svg PUBLIC "-//W3C//DTD SVG 20010904//EN"
 "http://www.w3.org/TR/2001/REC-SVG-20010904/DTD/svg10.dtd">
<svg version="1.0" xmlns="http://www.w3.org/2000/svg"
 width="115.825082pt" height="120.625826pt" viewBox="0 0 115.825082 120.625826"
 preserveAspectRatio="xMidYMid meet">
<metadata>
Created by potrace 1.16, written by Peter Selinger 2001-2019
</metadata>
<g transform="translate(5.625082,114.591587) scale(0.100000,-0.100000)"
fill="#000000" stroke="none">
<path d="M469 1051 c-118 -74 -217 -306 -207 -483 l5 -78 -50 0 c-66 0 -130
31 -158 76 -26 42 -45 39 -42 -6 4 -81 128 -177 242 -188 63 -6 65 -19 9 -66
-45 -39 -129 -75 -193 -83 -51 -7 -69 -21 -54 -39 14 -16 70 -18 156 -4 76 13
143 41 195 81 21 17 41 30 43 28 2 -2 -2 -21 -9 -41 -25 -71 -81 -125 -212
-204 -15 -10 -16 -15 -7 -25 10 -10 21 -10 55 0 100 30 208 104 248 169 14 23
28 42 32 42 3 0 16 -16 28 -35 47 -76 179 -163 273 -180 57 -11 48 17 -20 59
-91 55 -173 151 -173 201 0 21 13 19 36 -6 70 -78 364 -137 364 -73 0 7 -12
16 -27 19 -88 19 -119 28 -160 47 -46 22 -113 78 -113 95 0 6 25 13 56 16 111
11 225 95 240 174 10 52 -8 60 -40 18 -37 -49 -93 -75 -159 -75 l-54 0 9 48
c28 149 -81 426 -201 511 -46 33 -64 33 -112 2z m-81 -459 c3 -16 -2 -22 -17
-22 -26 0 -36 17 -20 36 16 19 33 13 37 -14z m300 0 c3 -16 -2 -22 -17 -22
-26 0 -36 17 -20 36 16 19 33 13 37 -14z m-168 -169 c-1 -5 -9 -23 -19 -42
l-18 -35 -17 32 c-23 45 -20 52 19 52 19 0 35 -3 35 -7z m80 0 c-1 -5 -9 -23
-19 -42 l-18 -35 -17 32 c-23 45 -20 52 19 52 19 0 35 -3 35 -7z"/>
</g>
</svg>
