<?xml version="1.0" standalone="no"?>
<!DOCTYPE svg PUBLIC "-//W3C//DTD SVG 20010904//EN"
 "http://www.w3.org/TR/2001/REC-SVG-20010904/DTD/svg10.dtd">
<svg version="1.0" xmlns="http://www.w3.org/2000/svg"
 width="114.884511pt" height="97.428787pt" viewBox="0 0 114.884511 97.428787"
 preserveAspectRatio="xMidYMid meet">
<metadata>
Created by potrace 1.16, written by Peter Selinger 2001-2019
</metadata>
<g transform="translate(7.075533,91.228787) scale(0.100000,-0.100000)"
fill="#000000" stroke="none">
<path d="M10 823 c0 -10 4 -24 9 -32 6 -10 4 -25 -5 -42 -31 -61 -4 -133 63
-168 l38 -19 23 -133 c13 -74 26 -146 29 -162 4 -21 2 -27 -12 -27 -9 0 -32
-15 -51 -34 -29 -29 -34 -41 -34 -81 0 -40 5 -52 34 -81 l34 -34 208 0 c226 1
240 4 275 56 16 25 19 48 19 177 l0 147 -55 0 -55 0 0 -35 c0 -19 -3 -35 -7
-35 -5 0 -56 66 -115 147 l-107 146 15 30 c11 20 14 42 9 66 -9 50 -9 82 0
109 6 19 4 22 -18 22 -14 0 -32 -6 -39 -12 -16 -16 -185 -15 -201 1 -18 18
-57 13 -57 -6z m107 -89 c8 -22 -10 -49 -32 -49 -22 0 -40 27 -32 49 8 21 56
21 64 0z m170 0 c8 -22 -10 -49 -32 -49 -22 0 -40 27 -32 49 8 21 56 21 64 0z
m-93 -33 c21 -44 18 -69 -6 -85 -22 -13 -51 2 -56 29 -4 19 27 95 38 95 4 0
15 -17 24 -39z"/>
<path d="M72 719 c2 -6 8 -10 13 -10 5 0 11 4 13 10 2 6 -4 11 -13 11 -9 0
-15 -5 -13 -11z"/>
<path d="M242 719 c2 -6 8 -10 13 -10 5 0 11 4 13 10 2 6 -4 11 -13 11 -9 0
-15 -5 -13 -11z"/>
<path d="M146 639 c6 -11 44 -12 44 -1 0 4 -11 8 -25 8 -14 1 -22 -2 -19 -7z"/>
<path d="M618 794 c-16 -8 -28 -16 -28 -18 0 -2 20 -20 45 -40 l45 -37 0 55
c0 62 -10 69 -62 40z"/>
<path d="M730 755 c0 -52 1 -55 25 -55 24 0 25 3 25 55 0 52 -1 55 -25 55 -24
0 -25 -3 -25 -55z"/>
<path d="M840 755 c0 -52 1 -55 25 -55 24 0 25 3 25 55 0 52 -1 55 -25 55 -24
0 -25 -3 -25 -55z"/>
<path d="M940 755 c0 -37 4 -55 13 -55 18 0 33 12 46 38 10 19 10 28 -4 48 -8
13 -24 24 -35 24 -18 0 -20 -7 -20 -55z"/>
<path d="M536 698 c-9 -37 -8 -38 46 -38 l52 0 -34 30 c-42 35 -56 37 -64 8z"/>
<path d="M530 575 c0 -24 3 -25 55 -25 52 0 55 1 55 25 0 24 -3 25 -55 25 -52
0 -55 -1 -55 -25z"/>
<path d="M530 475 c0 -24 3 -25 55 -25 52 0 55 1 55 25 0 24 -3 25 -55 25 -52
0 -55 -1 -55 -25z"/>
</g>
</svg>
