<?xml version="1.0" standalone="no"?>
<!DOCTYPE svg PUBLIC "-//W3C//DTD SVG 20010904//EN"
 "http://www.w3.org/TR/2001/REC-SVG-20010904/DTD/svg10.dtd">
<svg version="1.0" xmlns="http://www.w3.org/2000/svg"
 width="102.400000pt" height="88.936594pt" viewBox="0 0 102.400000 88.936594"
 preserveAspectRatio="xMidYMid meet">
<metadata>
Created by potrace 1.16, written by Peter Selinger 2001-2019
</metadata>
<g transform="translate(6.200000,82.235823) scale(0.100000,-0.100000)"
fill="#000000" stroke="none">
<path d="M646 711 l-39 -40 -41 22 c-60 32 -184 31 -245 -2 l-43 -23 -38 37
c-62 61 -74 50 -78 -74 l-3 -105 -74 -92 c-41 -51 -75 -98 -75 -104 0 -5 22
-10 49 -10 l49 0 12 -47 c52 -209 253 -317 455 -246 110 39 192 137 219 266 6
25 10 27 51 27 25 0 45 5 45 11 0 5 -34 49 -75 97 l-75 87 0 98 c0 146 -23
170 -94 98z m-241 -86 c0 -22 -31 -33 -47 -17 -17 17 -1 44 24 40 15 -2 23
-10 23 -23z m145 -51 c0 -14 -21 -19 -33 -7 -9 9 13 34 24 27 5 -3 9 -12 9
-20z m-184 -75 c17 -19 17 -23 3 -47 -26 -48 -99 -34 -99 18 0 47 62 66 96 29z
m248 5 c9 -8 16 -22 16 -30 0 -55 -66 -75 -96 -29 -15 23 -15 27 0 50 19 29
56 33 80 9z m154 -88 c4 -21 -14 -37 -35 -29 -14 5 -18 35 -6 47 12 12 38 1
41 -18z m-550 -28 c30 -30 -4 -77 -41 -57 -29 17 -15 69 18 69 6 0 16 -5 23
-12z m297 -39 c4 -6 -3 -30 -16 -54 -20 -37 -21 -45 -9 -60 19 -23 53 -15 68
18 17 35 42 36 42 2 0 -57 -78 -95 -126 -61 -17 12 -22 12 -39 0 -44 -32 -122
2 -127 56 -4 36 24 36 44 0 19 -33 48 -39 69 -14 11 13 9 23 -10 59 -13 24
-20 48 -16 54 8 14 112 14 120 0z m163 -8 c19 -11 11 -45 -11 -49 -19 -4 -32
20 -23 43 6 17 15 19 34 6z m-60 -208 c3 -19 -1 -23 -22 -23 -21 0 -26 5 -26
26 0 21 4 25 23 22 14 -2 23 -11 25 -25z m-234 -15 c8 -14 7 -21 -6 -34 -30
-30 -75 9 -48 42 16 18 39 15 54 -8z"/>
<path d="M305 480 c-4 -7 -3 -16 3 -22 14 -14 45 -2 40 15 -6 16 -34 21 -43 7z"/>
<path d="M560 470 c0 -15 5 -20 18 -18 9 2 17 10 17 18 0 8 -8 16 -17 18 -13
2 -18 -3 -18 -18z"/>
</g>
</svg>
