<?xml version="1.0" standalone="no"?>
<!DOCTYPE svg PUBLIC "-//W3C//DTD SVG 20010904//EN"
 "http://www.w3.org/TR/2001/REC-SVG-20010904/DTD/svg10.dtd">
<svg version="1.0" xmlns="http://www.w3.org/2000/svg"
 width="87.076946pt" height="109.847985pt" viewBox="0 0 87.076946 109.847985"
 preserveAspectRatio="xMidYMid meet">
<metadata>
Created by potrace 1.16, written by Peter Selinger 2001-2019
</metadata>
<g transform="translate(6.951409,103.077068) scale(0.100000,-0.100000)"
fill="#000000" stroke="none">
<path d="M95 942 c-81 -51 -112 -135 -80 -218 14 -37 36 -62 113 -125 52 -43
101 -79 108 -79 20 0 25 -15 14 -46 -5 -16 -21 -68 -35 -116 -24 -79 -28 -87
-53 -90 -16 -2 -28 -10 -30 -20 -3 -16 5 -18 56 -18 40 0 62 4 65 13 3 7 26
46 52 86 38 59 49 70 61 60 8 -6 14 -28 14 -48 0 -20 5 -43 10 -51 8 -12 2
-16 -28 -20 -25 -3 -38 -11 -40 -22 -3 -15 5 -18 50 -18 l54 0 55 80 c30 44
57 80 60 80 4 0 -4 -35 -17 -77 -13 -43 -24 -82 -24 -87 0 -5 37 -6 85 -3 47
3 85 4 85 1 0 -16 -33 -64 -67 -96 -43 -41 -107 -73 -170 -83 -46 -7 -64 -22
-42 -36 20 -12 86 0 145 26 114 50 184 150 192 269 4 66 2 74 -25 108 -15 21
-30 37 -33 38 -3 0 -20 -25 -39 -56 -18 -30 -35 -53 -37 -51 -2 2 5 33 16 68
11 35 20 71 20 79 -1 18 -59 84 -67 76 -3 -3 -23 -34 -44 -68 -22 -35 -39 -59
-39 -54 0 6 12 48 26 94 l26 85 -21 20 -20 21 21 34 c26 42 28 124 4 169 -9
18 -32 45 -53 60 -36 27 -39 28 -187 31 -134 2 -154 1 -181 -16z m336 -88 c16
-19 0 -50 -25 -48 -14 2 -16 -3 -10 -30 20 -79 14 -95 -55 -148 -48 -37 -68
-47 -85 -42 -17 5 -57 34 -129 94 -4 4 -2 35 6 69 10 43 11 61 3 58 -16 -6
-46 11 -46 26 0 32 24 37 176 37 126 0 154 -3 165 -16z"/>
<path d="M190 780 c0 -5 7 -10 16 -10 8 0 12 5 9 10 -3 6 -10 10 -16 10 -5 0
-9 -4 -9 -10z"/>
<path d="M330 780 c0 -5 5 -10 10 -10 6 0 10 5 10 10 0 6 -4 10 -10 10 -5 0
-10 -4 -10 -10z"/>
<path d="M247 743 c-3 -5 -2 -15 4 -23 15 -24 10 -40 -11 -40 -11 0 -20 7 -20
15 0 8 -4 15 -10 15 -14 0 -12 -26 3 -38 19 -16 113 -13 127 3 6 8 8 19 4 26
-5 8 -9 7 -16 -5 -12 -22 -42 -21 -35 2 12 45 12 47 -15 50 -14 2 -28 -1 -31
-5z"/>
</g>
</svg>
