<?xml version="1.0" standalone="no"?>
<!DOCTYPE svg PUBLIC "-//W3C//DTD SVG 20010904//EN"
 "http://www.w3.org/TR/2001/REC-SVG-20010904/DTD/svg10.dtd">
<svg version="1.0" xmlns="http://www.w3.org/2000/svg"
 width="119.318891pt" height="123.545268pt" viewBox="0 0 119.318891 123.545268"
 preserveAspectRatio="xMidYMid meet">
<metadata>
Created by potrace 1.16, written by Peter Selinger 2001-2019
</metadata>
<g transform="translate(7.122621,117.200000) scale(0.100000,-0.100000)"
fill="#000000" stroke="none">
<path d="M322 1088 c-7 -7 -12 -25 -12 -40 0 -24 -4 -28 -29 -28 -17 0 -42
-11 -60 -26 -17 -14 -65 -37 -107 -51 -42 -14 -85 -34 -95 -44 -25 -25 -24
-64 1 -89 19 -19 31 -23 103 -35 30 -5 37 -10 33 -23 -21 -72 -57 -315 -54
-357 3 -34 28 -101 80 -215 74 -160 77 -165 108 -168 l32 -3 -7 95 -7 96 221
0 221 0 0 -96 0 -95 31 3 c30 3 34 9 110 178 77 171 79 177 75 240 -2 36 -7
74 -11 86 -5 18 -2 22 24 27 34 7 71 56 71 95 0 31 -26 79 -49 92 -11 5 -37
10 -59 10 -47 0 -89 -34 -99 -80 -5 -26 -10 -31 -27 -26 -12 3 -114 6 -228 6
l-208 0 0 218 c0 217 -4 242 -35 242 -6 0 -16 -5 -23 -12z m-55 -170 c43 -40
21 -109 -39 -124 -25 -5 -28 -3 -28 17 -1 23 -1 23 -15 5 -13 -17 -20 -17 -76
-7 -72 12 -93 33 -71 69 10 16 138 60 176 61 18 1 39 -8 53 -21z"/>
<path d="M215 910 c-8 -13 4 -32 16 -25 12 8 12 35 0 35 -6 0 -13 -4 -16 -10z"/>
<path d="M74 864 c3 -9 6 -18 6 -21 0 -3 7 0 15 7 21 18 19 30 -6 30 -15 0
-19 -4 -15 -16z"/>
</g>
</svg>
