<?xml version="1.0" standalone="no"?>
<!DOCTYPE svg PUBLIC "-//W3C//DTD SVG 20010904//EN"
 "http://www.w3.org/TR/2001/REC-SVG-20010904/DTD/svg10.dtd">
<svg version="1.0" xmlns="http://www.w3.org/2000/svg"
 width="109.864956pt" height="108.008861pt" viewBox="0 0 109.864956 108.008861"
 preserveAspectRatio="xMidYMid meet">
<metadata>
Created by potrace 1.16, written by Peter Selinger 2001-2019
</metadata>
<g transform="translate(6.200000,101.095187) scale(0.100000,-0.100000)"
fill="#000000" stroke="none">
<path d="M74 930 c-46 -18 -64 -57 -64 -137 l0 -74 37 3 c30 2 41 9 51 31 11
23 42 39 42 21 0 -11 -23 -49 -42 -70 -17 -19 -18 -28 -9 -84 9 -56 8 -66 -9
-90 -27 -38 -44 -109 -36 -151 3 -19 19 -50 35 -69 l28 -34 38 56 37 57 52
-38 c114 -86 207 -114 382 -115 l122 -1 7 -70 c9 -90 27 -129 72 -150 30 -15
42 -15 74 -6 80 24 98 108 39 179 -59 70 -753 734 -778 743 -28 11 -50 11 -78
-1z m74 -53 c4 -20 -25 -34 -40 -19 -15 15 -1 44 19 40 10 -2 19 -11 21 -21z
m-100 -65 c2 -7 -3 -12 -12 -12 -9 0 -16 7 -16 16 0 17 22 14 28 -4z m50 0 c2
-7 -3 -12 -12 -12 -9 0 -16 7 -16 16 0 17 22 14 28 -4z m-30 -43 c-2 -6 -8
-10 -13 -10 -5 0 -11 4 -13 10 -2 6 4 11 13 11 9 0 15 -5 13 -11z"/>
</g>
</svg>
