<?xml version="1.0" standalone="no"?>
<!DOCTYPE svg PUBLIC "-//W3C//DTD SVG 20010904//EN"
 "http://www.w3.org/TR/2001/REC-SVG-20010904/DTD/svg10.dtd">
<svg version="1.0" xmlns="http://www.w3.org/2000/svg"
 width="112.422454pt" height="90.400000pt" viewBox="0 0 112.422454 90.400000"
 preserveAspectRatio="xMidYMid meet">
<metadata>
Created by potrace 1.16, written by Peter Selinger 2001-2019
</metadata>
<g transform="translate(6.222454,83.200000) scale(0.100000,-0.100000)"
fill="#000000" stroke="none">
<path d="M430 743 c-14 -9 -27 -19 -30 -22 -3 -3 -23 -6 -46 -6 -33 -1 -58
-13 -140 -69 -54 -38 -123 -89 -151 -113 -54 -46 -69 -83 -34 -83 13 0 20 -9
25 -30 8 -40 44 -56 175 -74 57 -8 107 -18 111 -23 4 -4 38 -79 75 -165 l68
-158 254 0 c139 0 253 4 253 9 0 4 -103 146 -229 313 -172 230 -230 315 -236
344 -9 50 -35 94 -55 94 -9 0 -27 -8 -40 -17z m-60 -128 c10 -12 10 -18 0 -30
-16 -19 -39 -19 -46 0 -6 15 11 45 26 45 4 0 13 -7 20 -15z m-134 -76 c10 -17
-13 -36 -27 -22 -12 12 -4 33 11 33 5 0 12 -5 16 -11z m-50 -80 c10 -17 -13
-36 -27 -22 -12 12 -4 33 11 33 5 0 12 -5 16 -11z m104 -4 c0 -8 -9 -15 -20
-15 -11 0 -20 7 -20 15 0 8 9 15 20 15 11 0 20 -7 20 -15z"/>
</g>
</svg>
