<?xml version="1.0" standalone="no"?>
<!DOCTYPE svg PUBLIC "-//W3C//DTD SVG 20010904//EN"
 "http://www.w3.org/TR/2001/REC-SVG-20010904/DTD/svg10.dtd">
<svg version="1.0" xmlns="http://www.w3.org/2000/svg"
 width="117.958348pt" height="98.914579pt" viewBox="0 0 117.958348 98.914579"
 preserveAspectRatio="xMidYMid meet">
<metadata>
Created by potrace 1.16, written by Peter Selinger 2001-2019
</metadata>
<g transform="translate(6.200000,91.940367) scale(0.100000,-0.100000)"
fill="#000000" stroke="none">
<path d="M399 836 c-114 -44 -186 -107 -231 -202 -25 -54 -34 -64 -73 -78 -52
-21 -85 -66 -85 -120 0 -85 58 -136 153 -136 l57 0 0 -65 c0 -78 14 -110 72
-159 88 -76 251 -96 365 -46 109 48 153 108 153 210 l0 60 69 0 c81 0 125 24
155 83 41 84 -29 187 -126 187 -19 0 -27 10 -41 49 -25 71 -104 153 -184 193
-57 28 -78 33 -157 35 -59 2 -103 -2 -127 -11z m64 -124 c15 -10 34 -27 42
-38 15 -19 15 -19 30 0 59 77 187 73 240 -7 44 -68 18 -169 -53 -204 -37 -18
-37 -19 -34 -72 4 -65 -10 -83 -81 -107 -73 -24 -164 -15 -225 23 -47 29 -47
29 -47 84 0 51 -3 57 -37 88 -59 52 -72 126 -31 189 37 58 139 81 196 44z
m-43 -465 c68 -24 169 -19 229 10 l41 20 0 -26 c-1 -39 -34 -104 -65 -129
-110 -87 -263 -22 -291 122 -6 36 -5 39 12 31 10 -4 44 -17 74 -28z"/>
<path d="M355 610 c-37 -41 24 -97 63 -58 18 18 14 56 -7 68 -27 14 -35 13
-56 -10z"/>
<path d="M626 614 c-30 -30 -13 -74 29 -74 42 0 59 44 29 74 -8 9 -22 16 -29
16 -7 0 -21 -7 -29 -16z"/>
<path d="M437 454 c-10 -10 -9 -42 2 -48 18 -11 42 6 39 28 -3 21 -28 33 -41
20z"/>
<path d="M560 444 c-11 -12 -10 -18 3 -32 16 -15 18 -15 33 0 19 18 12 48 -9
48 -8 0 -20 -7 -27 -16z"/>
</g>
</svg>
