<?xml version="1.0" standalone="no"?>
<!DOCTYPE svg PUBLIC "-//W3C//DTD SVG 20010904//EN"
 "http://www.w3.org/TR/2001/REC-SVG-20010904/DTD/svg10.dtd">
<svg version="1.0" xmlns="http://www.w3.org/2000/svg"
 width="126.280198pt" height="106.301686pt" viewBox="0 0 126.280198 106.301686"
 preserveAspectRatio="xMidYMid meet">
<metadata>
Created by potrace 1.16, written by Peter Selinger 2001-2019
</metadata>
<g transform="translate(6.080198,100.200000) scale(0.100000,-0.100000)"
fill="#000000" stroke="none">
<path d="M20 915 c-19 -23 -6 -107 27 -166 56 -104 200 -208 331 -239 28 -6
52 -13 52 -15 0 -2 -14 -61 -31 -131 -37 -154 -35 -206 7 -266 104 -149 343
-97 370 80 6 41 -14 155 -52 297 -4 18 5 23 72 44 184 57 334 214 334 350 0
44 -14 61 -52 61 -31 0 -48 -23 -48 -67 -1 -15 -9 -43 -19 -62 l-18 -34 -6 53
c-8 63 -20 80 -58 80 -34 0 -53 -29 -44 -70 3 -15 1 -48 -6 -72 l-11 -43 -13
50 c-7 27 -22 57 -34 66 -43 35 -88 -7 -69 -64 14 -38 2 -91 -28 -127 l-26
-30 -33 29 c-59 51 -135 50 -185 -4 -30 -32 -55 -19 -81 41 -17 37 -18 50 -9
84 15 55 0 82 -43 78 -33 -3 -51 -26 -62 -82 -10 -47 -25 -11 -25 60 0 67 -11
84 -52 84 -35 0 -48 -24 -48 -87 l-1 -48 -19 23 c-11 13 -22 40 -25 60 -11 65
-22 82 -54 82 -16 0 -34 -7 -41 -15z m505 -470 c0 -21 -31 -33 -46 -18 -5 5
-7 17 -3 27 9 24 49 17 49 -9z m140 0 c0 -23 -34 -33 -46 -14 -10 17 9 41 30
37 9 -2 16 -12 16 -23z m5 -177 c0 -6 -18 -42 -40 -79 -45 -75 -54 -131 -20
-122 10 3 25 11 31 19 15 19 39 18 39 -1 0 -17 -72 -55 -105 -55 -33 0 -105
38 -105 55 0 19 24 20 39 1 6 -8 21 -16 31 -19 34 -9 25 47 -20 122 -22 37
-40 73 -40 79 0 8 28 12 95 12 67 0 95 -4 95 -12z"/>
</g>
</svg>
