<?xml version="1.0" standalone="no"?>
<!DOCTYPE svg PUBLIC "-//W3C//DTD SVG 20010904//EN"
 "http://www.w3.org/TR/2001/REC-SVG-20010904/DTD/svg10.dtd">
<svg version="1.0" xmlns="http://www.w3.org/2000/svg"
 width="111.396357pt" height="116.272182pt" viewBox="0 0 111.396357 116.272182"
 preserveAspectRatio="xMidYMid meet">
<metadata>
Created by potrace 1.16, written by Peter Selinger 2001-2019
</metadata>
<g transform="translate(6.200000,110.072182) scale(0.100000,-0.100000)"
fill="#000000" stroke="none">
<path d="M10 1016 c0 -8 18 -65 40 -126 l39 -111 -27 -41 c-22 -33 -27 -55
-31 -116 l-3 -75 43 6 c47 6 89 42 89 77 0 25 19 35 26 15 10 -25 -22 -83 -57
-104 -29 -17 -30 -20 -13 -29 11 -5 98 -12 194 -14 170 -4 177 -5 240 -34 103
-49 191 -152 215 -255 6 -24 3 -27 -28 -33 -54 -10 -97 -67 -97 -130 0 -35 1
-36 39 -36 43 0 99 33 117 68 l11 23 17 -26 c24 -37 75 -65 119 -65 36 0 37 1
37 38 0 51 -33 100 -79 120 l-39 17 -4 90 c-6 104 -30 183 -83 262 -113 170
-289 263 -498 263 l-102 0 -61 113 c-45 84 -66 113 -82 115 -14 2 -22 -2 -22
-12z m190 -291 c15 -18 5 -35 -21 -35 -12 0 -19 7 -19 18 0 33 20 42 40 17z"/>
</g>
</svg>
