<?xml version="1.0" standalone="no"?>
<!DOCTYPE svg PUBLIC "-//W3C//DTD SVG 20010904//EN"
 "http://www.w3.org/TR/2001/REC-SVG-20010904/DTD/svg10.dtd">
<svg version="1.0" xmlns="http://www.w3.org/2000/svg"
 width="109.356076pt" height="105.973730pt" viewBox="0 0 109.356076 105.973730"
 preserveAspectRatio="xMidYMid meet">
<metadata>
Created by potrace 1.16, written by Peter Selinger 2001-2019
</metadata>
<g transform="translate(7.200000,99.782594) scale(0.100000,-0.100000)"
fill="#000000" stroke="none">
<path d="M417 920 c-93 -24 -176 -90 -216 -173 -20 -40 -27 -47 -52 -47 -80 0
-116 -114 -56 -174 l23 -23 -43 -47 c-44 -49 -73 -121 -73 -181 0 -97 66 -200
154 -241 50 -23 58 -24 329 -24 275 0 278 0 326 25 92 46 141 129 141 240 0
79 -19 131 -69 187 l-31 36 23 15 c75 49 46 187 -39 187 -18 0 -29 11 -49 50
-52 103 -149 167 -267 175 -34 2 -80 0 -101 -5z m253 -285 c52 -46 58 -113 14
-160 l-23 -25 27 0 c15 0 45 -9 68 -19 133 -61 134 -245 2 -310 -41 -20 -60
-21 -279 -21 -207 0 -239 3 -275 19 -106 48 -137 182 -61 268 34 39 81 63 121
63 l25 0 -24 36 c-29 43 -31 64 -10 108 29 60 51 67 231 64 146 -3 164 -5 184
-23z"/>
<path d="M347 584 c-16 -16 -7 -44 14 -44 15 0 20 5 17 22 -3 22 -19 33 -31
22z"/>
<path d="M591 576 c-16 -19 -6 -36 20 -36 15 0 20 6 17 22 -4 27 -21 33 -37
14z"/>
<path d="M400 442 c0 -10 16 -33 35 -52 32 -31 35 -39 35 -92 0 -64 -6 -69
-52 -37 -21 15 -33 18 -40 11 -25 -25 47 -72 109 -72 49 0 107 31 111 59 4 26
-12 27 -45 1 -14 -11 -30 -20 -34 -20 -5 0 -9 26 -9 58 0 53 3 61 35 92 19 19
35 40 35 46 0 28 -24 24 -59 -10 l-37 -36 -34 35 c-38 39 -50 43 -50 17z"/>
</g>
</svg>
