<?xml version="1.0" standalone="no"?>
<!DOCTYPE svg PUBLIC "-//W3C//DTD SVG 20010904//EN"
 "http://www.w3.org/TR/2001/REC-SVG-20010904/DTD/svg10.dtd">
<svg version="1.0" xmlns="http://www.w3.org/2000/svg"
 width="122.300168pt" height="91.326085pt" viewBox="0 0 122.300168 91.326085"
 preserveAspectRatio="xMidYMid meet">
<metadata>
Created by potrace 1.16, written by Peter Selinger 2001-2019
</metadata>
<g transform="translate(6.100168,84.126085) scale(0.100000,-0.100000)"
fill="#000000" stroke="none">
<path d="M476 755 c-21 -7 -55 -27 -76 -44 -22 -17 -48 -31 -59 -31 -51 0 -79
-72 -42 -109 18 -18 18 -23 -3 -235 l-21 -216 -31 0 c-21 0 -40 -10 -64 -35
-19 -19 -39 -35 -45 -35 -6 0 -26 16 -44 36 -22 23 -41 34 -55 32 -24 -3 -36
-38 -13 -38 9 0 26 -13 39 -29 53 -62 92 -63 146 -2 l32 36 33 -37 c49 -57 76
-58 130 -8 l45 41 40 -41 c23 -22 50 -40 62 -40 12 0 40 18 62 40 23 22 43 40
44 40 2 0 21 -18 43 -40 22 -22 49 -40 61 -40 12 0 39 18 61 40 22 22 41 40
43 40 1 0 21 -18 44 -40 22 -22 50 -40 62 -40 12 0 39 18 61 40 22 22 44 40
49 40 6 0 10 9 10 20 0 32 -39 24 -76 -15 -18 -19 -38 -35 -45 -35 -7 0 -27
16 -45 35 -23 25 -40 35 -62 35 -34 0 -27 -32 -58 272 -15 155 -15 157 5 177
41 41 12 111 -45 111 -16 0 -42 14 -65 34 -59 54 -143 70 -223 41z m-8 -223
c4 -28 -24 -40 -45 -19 -14 13 -14 19 -3 32 18 22 44 15 48 -13z m115 -22 c33
-62 34 -70 2 -70 -18 0 -25 -5 -25 -20 0 -23 12 -25 40 -8 29 18 39 -1 11 -23
-40 -33 -141 -19 -141 20 0 14 27 15 35 1 10 -17 25 -11 25 10 0 13 -7 20 -20
20 -11 0 -20 5 -20 11 0 13 53 109 60 109 3 0 17 -23 33 -50z m102 20 c0 -18
-6 -26 -23 -28 -27 -4 -40 22 -22 44 19 22 45 13 45 -16z m-215 -285 c0 -53
-83 -98 -118 -63 -20 20 -15 40 7 28 30 -16 59 -12 71 9 16 30 13 38 -31 86
-24 26 -38 49 -33 56 11 19 104 -84 104 -116z m270 102 c0 -7 -16 -28 -35 -47
-36 -35 -44 -67 -23 -88 15 -15 55 -16 64 -1 4 8 10 7 18 -1 8 -8 6 -15 -8
-26 -28 -20 -66 -17 -93 8 -34 32 -30 71 13 124 36 43 64 57 64 31z"/>
</g>
</svg>
