<?xml version="1.0" standalone="no"?>
<!DOCTYPE svg PUBLIC "-//W3C//DTD SVG 20010904//EN"
 "http://www.w3.org/TR/2001/REC-SVG-20010904/DTD/svg10.dtd">
<svg version="1.0" xmlns="http://www.w3.org/2000/svg"
 width="114.366998pt" height="96.806012pt" viewBox="0 0 114.366998 96.806012"
 preserveAspectRatio="xMidYMid meet">
<metadata>
Created by potrace 1.16, written by Peter Selinger 2001-2019
</metadata>
<g transform="translate(7.200000,89.606012) scale(0.100000,-0.100000)"
fill="#000000" stroke="none">
<path d="M124 819 c-36 -10 -91 -67 -100 -104 -12 -48 6 -98 50 -141 l43 -40
-38 -43 c-45 -50 -79 -135 -79 -195 0 -82 27 -144 89 -207 85 -84 107 -89 417
-89 228 0 259 2 306 20 76 28 122 71 159 145 29 60 31 71 27 142 -5 88 -21
125 -80 189 l-39 43 31 16 c94 49 93 202 -2 251 -67 35 -152 12 -189 -51 l-20
-33 -50 31 c-43 26 -62 31 -132 35 -78 4 -85 2 -148 -30 l-66 -35 -12 28 c-23
52 -106 86 -167 68z m81 -54 c30 -15 55 -50 55 -78 0 -24 -84 -97 -112 -97
-34 0 -78 51 -78 90 0 34 42 87 73 93 12 2 24 5 25 6 2 0 19 -6 37 -14z m670
1 c40 -17 55 -42 55 -91 0 -44 -36 -85 -77 -85 -35 0 -103 64 -103 98 0 36 18
62 53 77 40 18 32 17 72 1z m-468 -200 c38 -41 44 -95 18 -146 -22 -42 -141
-120 -183 -120 -48 0 -92 46 -92 96 0 57 62 177 102 198 53 27 115 16 155 -28z
m331 30 c38 -20 55 -42 85 -114 40 -95 34 -137 -23 -167 -46 -24 -70 -18 -142
30 -81 54 -103 85 -102 141 2 93 100 152 182 110z m-168 -240 c0 -2 -11 -24
-25 -47 -30 -53 -31 -65 -5 -79 23 -12 60 2 60 24 0 8 7 19 15 26 12 10 16 9
21 -4 12 -31 -6 -66 -41 -83 -32 -15 -38 -15 -67 -1 -30 14 -36 14 -66 0 -29
-14 -35 -14 -67 1 -36 17 -53 53 -40 84 7 17 8 17 18 -1 16 -26 45 -56 55 -56
5 0 17 6 28 14 18 14 18 15 -6 63 -13 26 -26 51 -28 56 -2 4 30 7 72 7 42 0
76 -2 76 -4z"/>
<path d="M274 489 c-8 -14 11 -33 25 -25 16 10 13 36 -3 36 -8 0 -18 -5 -22
-11z"/>
<path d="M684 489 c-3 -6 -2 -15 4 -21 13 -13 32 -2 32 18 0 16 -26 19 -36 3z"/>
</g>
</svg>
