<?xml version="1.0" standalone="no"?>
<!DOCTYPE svg PUBLIC "-//W3C//DTD SVG 20010904//EN"
 "http://www.w3.org/TR/2001/REC-SVG-20010904/DTD/svg10.dtd">
<svg version="1.0" xmlns="http://www.w3.org/2000/svg"
 width="79.280120pt" height="114.405508pt" viewBox="0 0 79.280120 114.405508"
 preserveAspectRatio="xMidYMid meet">
<metadata>
Created by potrace 1.16, written by Peter Selinger 2001-2019
</metadata>
<g transform="translate(6.080120,108.205508) scale(0.100000,-0.100000)"
fill="#000000" stroke="none">
<path d="M250 999 c-31 -12 -151 -129 -144 -141 3 -4 18 -8 33 -8 22 0 38 -11
65 -44 l36 -44 -29 -24 c-16 -13 -70 -85 -120 -162 -98 -148 -99 -152 -40
-176 23 -10 36 -10 55 -1 14 6 27 11 29 11 3 0 5 -79 5 -174 l0 -175 -47 -3
c-41 -3 -48 -6 -51 -26 -3 -21 0 -22 72 -22 l76 0 0 50 c0 28 4 50 8 50 4 0
25 -9 47 -20 24 -12 59 -20 90 -20 31 0 66 8 90 20 22 11 43 20 47 20 4 0 8
-22 8 -50 l0 -50 76 0 c72 0 75 1 72 22 -3 20 -10 23 -50 26 l-48 3 0 176 c0
163 1 175 18 168 38 -16 51 -16 81 -1 17 9 31 24 31 33 0 18 -148 250 -187
294 -19 21 -23 36 -23 90 0 138 -92 220 -200 178z m68 -92 c4 -20 -25 -34 -40
-19 -15 15 -1 44 19 40 10 -2 19 -11 21 -21z m56 -281 c62 -26 66 -41 66 -229
l0 -169 -35 -35 c-33 -33 -39 -35 -81 -30 -32 3 -55 13 -73 31 l-26 26 0 175
0 174 29 30 c25 26 38 33 79 40 4 0 23 -5 41 -13z"/>
</g>
</svg>
