<?xml version="1.0" standalone="no"?>
<!DOCTYPE svg PUBLIC "-//W3C//DTD SVG 20010904//EN"
 "http://www.w3.org/TR/2001/REC-SVG-20010904/DTD/svg10.dtd">
<svg version="1.0" xmlns="http://www.w3.org/2000/svg"
 width="69.365159pt" height="122.333003pt" viewBox="0 0 69.365159 122.333003"
 preserveAspectRatio="xMidYMid meet">
<metadata>
Created by potrace 1.16, written by Peter Selinger 2001-2019
</metadata>
<g transform="translate(6.439393,116.310086) scale(0.100000,-0.100000)"
fill="#000000" stroke="none">
<path d="M165 1066 c-62 -29 -107 -76 -136 -140 -29 -66 -29 -128 0 -263 l24
-113 46 43 c25 24 62 49 81 57 19 8 42 23 51 34 21 26 77 26 98 0 9 -11 37
-30 63 -43 26 -12 63 -40 82 -62 20 -21 36 -37 36 -34 0 3 12 60 26 127 30
137 28 201 -5 266 -67 132 -234 190 -366 128z m-17 -238 c-2 -13 -10 -23 -18
-23 -8 0 -16 10 -18 23 -3 17 2 22 18 22 16 0 21 -5 18 -22z m300 -1 c4 -20
-25 -34 -40 -19 -15 15 -1 44 19 40 10 -2 19 -11 21 -21z"/>
<path d="M248 652 c-7 -9 -40 -31 -73 -47 -39 -20 -68 -44 -86 -70 l-27 -40
28 -185 c16 -102 29 -188 30 -192 1 -17 68 -82 97 -94 68 -29 161 -4 203 56
33 47 86 390 65 429 -20 39 -75 88 -120 107 -22 9 -46 25 -53 35 -17 24 -47
24 -64 1z m-77 -173 c32 -22 37 -37 15 -45 -20 -8 -65 26 -66 49 0 23 15 22
51 -4z m265 9 c8 -12 -42 -58 -63 -58 -23 0 -13 35 15 52 32 21 39 22 48 6z"/>
</g>
</svg>
