<?xml version="1.0" standalone="no"?>
<!DOCTYPE svg PUBLIC "-//W3C//DTD SVG 20010904//EN"
 "http://www.w3.org/TR/2001/REC-SVG-20010904/DTD/svg10.dtd">
<svg version="1.0" xmlns="http://www.w3.org/2000/svg"
 width="125.348822pt" height="118.400000pt" viewBox="0 0 125.348822 118.400000"
 preserveAspectRatio="xMidYMid meet">
<metadata>
Created by potrace 1.16, written by Peter Selinger 2001-2019
</metadata>
<g transform="translate(6.200000,111.200000) scale(0.100000,-0.100000)"
fill="#000000" stroke="none">
<path d="M80 1005 c0 -33 -2 -35 -35 -35 -24 0 -35 -5 -35 -15 0 -11 11 -15
38 -15 31 0 45 -7 81 -44 l43 -43 -38 -7 -37 -7 39 -32 c21 -18 54 -46 73 -63
l35 -31 -23 -100 c-19 -83 -21 -107 -12 -140 32 -118 129 -150 295 -97 44 13
86 22 94 19 16 -6 14 -31 -12 -150 -25 -114 0 -187 78 -224 38 -19 61 -21 227
-21 181 0 186 1 207 23 28 30 29 78 1 103 -19 17 -41 19 -198 22 -97 2 -180 7
-184 11 -5 5 2 46 13 92 38 148 15 230 -78 271 -50 23 -95 20 -189 -13 -61
-21 -108 -25 -118 -9 -3 5 3 47 15 93 35 146 25 194 -56 266 -53 47 -127 86
-149 77 -21 -8 -45 27 -45 67 0 26 -4 37 -15 37 -10 0 -15 -11 -15 -35z m200
-170 c0 -20 -5 -25 -25 -25 -20 0 -25 5 -25 25 0 20 5 25 25 25 20 0 25 -5 25
-25z"/>
</g>
</svg>
