<?xml version="1.0" standalone="no"?>
<!DOCTYPE svg PUBLIC "-//W3C//DTD SVG 20010904//EN"
 "http://www.w3.org/TR/2001/REC-SVG-20010904/DTD/svg10.dtd">
<svg version="1.0" xmlns="http://www.w3.org/2000/svg"
 width="117.843351pt" height="94.047241pt" viewBox="0 0 117.843351 94.047241"
 preserveAspectRatio="xMidYMid meet">
<metadata>
Created by potrace 1.16, written by Peter Selinger 2001-2019
</metadata>
<g transform="translate(6.747317,87.847241) scale(0.100000,-0.100000)"
fill="#000000" stroke="none">
<path d="M148 771 c-47 -46 -151 -208 -143 -221 9 -14 51 -12 63 3 5 6 12 23
14 36 5 37 28 39 28 2 0 -29 1 -30 27 -20 24 9 30 7 42 -10 13 -21 14 -21 61
14 26 19 50 35 53 35 2 0 -11 -30 -30 -66 -31 -57 -34 -69 -24 -91 13 -29 11
-30 94 47 l39 35 -43 -87 c-33 -67 -41 -90 -32 -99 9 -9 25 -1 68 35 30 26 55
45 55 42 0 -4 -22 -51 -50 -106 l-50 -100 0 -105 c0 -104 0 -105 24 -105 22 0
26 8 55 133 17 72 31 137 31 144 0 12 131 125 138 119 2 -2 -8 -27 -22 -55
l-26 -51 70 0 c38 0 70 -3 70 -7 0 -5 -16 -64 -35 -133 -19 -69 -35 -128 -35
-132 0 -5 8 -8 18 -8 12 0 34 33 75 115 31 63 60 115 64 115 5 0 19 -16 32
-36 l25 -36 -17 -63 c-9 -35 -20 -71 -23 -79 -5 -12 0 -16 18 -16 39 0 94 126
113 257 23 156 20 197 -12 233 -18 20 -41 33 -66 37 -35 5 -42 2 -85 -38 -26
-24 -65 -60 -86 -79 l-39 -35 42 78 42 77 -27 0 c-20 0 -47 -19 -101 -71 -41
-40 -76 -69 -79 -67 -3 3 11 35 31 72 47 85 31 87 -67 11 -39 -31 -73 -54 -75
-52 -2 3 12 31 31 63 33 54 34 59 19 76 -22 25 -25 24 -79 -22 -25 -23 -48
-39 -51 -37 -2 3 10 30 28 61 l31 57 -78 82 c-44 45 -81 83 -84 83 -3 1 -22
-15 -42 -35z m42 -71 c0 -13 -7 -20 -20 -20 -13 0 -20 7 -20 20 0 13 7 20 20
20 13 0 20 -7 20 -20z"/>
<path d="M260 787 c0 -2 47 -45 104 -95 l104 -92 58 0 58 0 -30 31 c-45 48
-149 119 -204 140 -45 17 -90 25 -90 16z"/>
<path d="M973 408 c-10 -12 -43 -207 -43 -245 1 -14 6 -12 26 12 62 74 102
197 74 230 -15 18 -44 20 -57 3z"/>
</g>
</svg>
