<?xml version="1.0" standalone="no"?>
<!DOCTYPE svg PUBLIC "-//W3C//DTD SVG 20010904//EN"
 "http://www.w3.org/TR/2001/REC-SVG-20010904/DTD/svg10.dtd">
<svg version="1.0" xmlns="http://www.w3.org/2000/svg"
 width="88.263704pt" height="121.603483pt" viewBox="0 0 88.263704 121.603483"
 preserveAspectRatio="xMidYMid meet">
<metadata>
Created by potrace 1.16, written by Peter Selinger 2001-2019
</metadata>
<g transform="translate(6.163503,114.403483) scale(0.100000,-0.100000)"
fill="#000000" stroke="none">
<path d="M463 907 c-129 -258 -309 -573 -325 -568 -50 15 -68 12 -98 -17 -38
-39 -40 -79 -3 -122 25 -31 26 -32 10 -66 -25 -51 -22 -89 9 -113 26 -20 38
-21 335 -21 169 0 314 3 323 6 19 7 21 45 4 62 -7 7 -41 12 -81 12 l-68 0 15
22 c19 26 21 109 5 141 -6 12 -23 34 -36 49 -25 26 -25 27 -14 128 6 55 11
107 11 115 0 7 8 16 19 20 37 11 71 53 71 86 0 25 -10 41 -45 74 l-46 42 43
14 c84 27 166 145 156 224 -3 24 -7 22 -88 -48 l-85 -74 0 91 c0 154 -8 150
-112 -57z m47 -207 c0 -21 -24 -28 -35 -10 -8 14 3 30 21 30 8 0 14 -9 14 -20z
m88 -47 c-5 -25 -25 -27 -38 -4 -10 19 -8 21 15 21 19 0 26 -5 23 -17z m-88
-28 c0 -8 5 -15 10 -15 6 0 10 -7 10 -15 0 -18 -21 -20 -38 -3 -17 17 -15 48
3 48 8 0 15 -7 15 -15z"/>
</g>
</svg>
