<?xml version="1.0" standalone="no"?>
<!DOCTYPE svg PUBLIC "-//W3C//DTD SVG 20010904//EN"
 "http://www.w3.org/TR/2001/REC-SVG-20010904/DTD/svg10.dtd">
<svg version="1.0" xmlns="http://www.w3.org/2000/svg"
 width="106.609561pt" height="102.344027pt" viewBox="0 0 106.609561 102.344027"
 preserveAspectRatio="xMidYMid meet">
<metadata>
Created by potrace 1.16, written by Peter Selinger 2001-2019
</metadata>
<g transform="translate(7.461685,95.144027) scale(0.100000,-0.100000)"
fill="#000000" stroke="none">
<path d="M232 868 c-17 -17 -15 -73 4 -110 16 -30 15 -31 -23 -72 -84 -89 -87
-94 -73 -111 7 -8 27 -15 45 -15 23 0 43 -10 73 -40 l42 -39 0 -126 0 -126 50
-22 50 -22 0 -92 0 -93 30 0 30 0 0 76 c0 57 3 75 13 71 6 -2 29 -10 50 -18
37 -13 37 -13 37 -71 0 -58 0 -58 30 -58 29 0 30 2 30 45 0 25 2 45 5 45 2 0
25 -10 50 -22 29 -14 45 -29 45 -40 0 -24 11 -23 70 7 174 88 172 342 -3 430
-37 18 -67 25 -110 25 l-59 0 29 34 c18 23 37 35 55 35 74 2 75 25 2 107 -53
61 -55 65 -40 86 9 13 16 43 16 70 0 42 -3 48 -25 54 -33 8 -90 -3 -105 -21
-10 -13 -16 -13 -41 0 -33 18 -82 19 -110 4 -16 -8 -30 -7 -60 5 -47 19 -90
21 -107 4z m82 -41 c16 -12 15 -14 -8 -36 l-24 -23 -12 22 c-9 16 -9 25 1 36
14 17 20 18 43 1z m326 -16 c0 -9 -5 -23 -10 -31 -8 -13 -14 -11 -37 12 l-27
27 25 9 c30 12 49 5 49 -17z m-238 -48 c30 -27 23 -68 -19 -102 -62 -51 -112
-35 -99 33 14 73 74 109 118 69z m163 11 c24 -10 58 -82 51 -110 -10 -38 -49
-41 -96 -9 -32 22 -40 34 -40 58 0 51 38 79 85 61z m-75 -131 c0 -5 -4 -15 -9
-23 -6 -8 -8 -17 -5 -22 7 -11 34 3 34 18 0 8 7 14 15 14 24 0 17 -38 -9 -56
-18 -11 -30 -13 -43 -6 -11 7 -24 7 -36 0 -13 -7 -25 -5 -43 7 -26 17 -33 55
-9 55 8 0 15 -7 15 -15 0 -14 6 -17 28 -14 8 1 7 4 -3 32 -6 14 -1 17 29 17
20 0 36 -3 36 -7z"/>
<path d="M335 720 c-10 -17 12 -37 25 -24 8 8 6 15 -4 23 -10 9 -16 9 -21 1z"/>
<path d="M535 720 c-10 -17 12 -37 25 -24 8 8 6 15 -4 23 -10 9 -16 9 -21 1z"/>
<path d="M240 120 l0 -110 30 0 30 0 0 110 0 110 -30 0 -30 0 0 -110z"/>
<path d="M93 191 c-37 -23 -82 -95 -90 -145 l-6 -36 72 0 71 0 0 100 c0 55 -3
100 -7 100 -5 0 -22 -9 -40 -19z"/>
</g>
</svg>
