<?xml version="1.0" standalone="no"?>
<!DOCTYPE svg PUBLIC "-//W3C//DTD SVG 20010904//EN"
 "http://www.w3.org/TR/2001/REC-SVG-20010904/DTD/svg10.dtd">
<svg version="1.0" xmlns="http://www.w3.org/2000/svg"
 width="98.064868pt" height="115.565419pt" viewBox="0 0 98.064868 115.565419"
 preserveAspectRatio="xMidYMid meet">
<metadata>
Created by potrace 1.16, written by Peter Selinger 2001-2019
</metadata>
<g transform="translate(6.034893,108.200000) scale(0.100000,-0.100000)"
fill="#000000" stroke="none">
<path d="M125 977 c-78 -78 -65 -214 25 -265 l30 -17 0 -103 c0 -98 1 -104 26
-127 35 -33 81 -44 151 -38 47 3 64 0 91 -16 94 -60 97 -192 6 -252 -36 -23
-80 -25 -88 -3 -7 19 10 44 31 44 27 0 63 47 63 82 -1 64 -42 91 -128 82 -49
-6 -68 -3 -104 15 -59 28 -105 77 -127 137 -15 39 -24 50 -44 52 -37 5 -51
-27 -43 -101 10 -100 60 -190 136 -242 23 -16 50 -47 62 -72 27 -54 75 -98
137 -127 41 -18 69 -21 241 -24 l195 -4 -30 34 c-70 76 -68 67 -35 132 l30 59
0 234 0 234 39 37 c44 42 67 103 57 155 -8 44 -44 97 -78 116 -23 13 -28 13
-52 -3 -24 -15 -59 -62 -69 -91 -2 -5 -24 1 -48 15 -38 22 -56 25 -134 25 -80
0 -96 -3 -139 -28 -27 -15 -50 -26 -51 -25 -1 2 -7 18 -15 36 -14 36 -63 82
-87 82 -8 0 -30 -15 -48 -33z m193 -490 c4 -20 -25 -34 -40 -19 -15 15 -1 44
19 40 10 -2 19 -11 21 -21z m320 0 c4 -20 -25 -34 -40 -19 -15 15 -1 44 19 40
10 -2 19 -11 21 -21z"/>
</g>
</svg>
