<?xml version="1.0" standalone="no"?>
<!DOCTYPE svg PUBLIC "-//W3C//DTD SVG 20010904//EN"
 "http://www.w3.org/TR/2001/REC-SVG-20010904/DTD/svg10.dtd">
<svg version="1.0" xmlns="http://www.w3.org/2000/svg"
 width="111.173317pt" height="79.273914pt" viewBox="0 0 111.173317 79.273914"
 preserveAspectRatio="xMidYMid meet">
<metadata>
Created by potrace 1.16, written by Peter Selinger 2001-2019
</metadata>
<g transform="translate(6.200000,72.073914) scale(0.100000,-0.100000)"
fill="#000000" stroke="none">
<path d="M455 630 c-25 -13 -59 -20 -92 -20 -62 0 -117 -20 -132 -48 -6 -11
-26 -23 -44 -26 -21 -4 -47 -20 -66 -41 -17 -19 -38 -35 -47 -35 -29 0 -64
-47 -64 -85 0 -76 45 -105 166 -105 61 0 74 -3 78 -17 3 -10 17 -63 32 -118
32 -123 39 -135 68 -135 33 0 41 14 61 102 16 73 18 77 37 67 26 -14 85 -14
102 0 10 8 22 7 48 -3 34 -15 71 -12 95 6 12 9 21 -15 38 -102 9 -45 22 -60
50 -60 31 0 41 15 60 90 9 36 20 81 25 100 8 28 17 39 45 49 48 17 62 50 63
149 0 73 -2 86 -24 111 -13 16 -35 32 -49 35 -14 4 -25 13 -25 20 0 25 -49 74
-80 81 -19 4 -41 1 -60 -8 -27 -14 -33 -14 -61 0 -28 14 -35 14 -70 0 -34 -14
-43 -14 -67 -1 -35 18 -40 18 -87 -6z m-175 -225 l0 -95 -44 0 -45 0 6 35 c7
44 -15 48 -38 6 -31 -53 -101 -43 -107 16 -4 35 25 63 65 63 14 0 23 6 23 15
0 32 38 55 90 55 l50 0 0 -95z m112 70 c15 -34 0 -80 -27 -80 -27 0 -42 46
-27 80 6 14 19 25 27 25 8 0 21 -11 27 -25z"/>
<path d="M187 446 c-8 -20 20 -43 35 -28 14 14 3 42 -16 42 -7 0 -16 -6 -19
-14z"/>
</g>
</svg>
