<?xml version="1.0" standalone="no"?>
<!DOCTYPE svg PUBLIC "-//W3C//DTD SVG 20010904//EN"
 "http://www.w3.org/TR/2001/REC-SVG-20010904/DTD/svg10.dtd">
<svg version="1.0" xmlns="http://www.w3.org/2000/svg"
 width="127.148312pt" height="69.166471pt" viewBox="0 0 127.148312 69.166471"
 preserveAspectRatio="xMidYMid meet">
<metadata>
Created by potrace 1.16, written by Peter Selinger 2001-2019
</metadata>
<g transform="translate(6.700000,63.052758) scale(0.100000,-0.100000)"
fill="#000000" stroke="none">
<path d="M450 544 c-79 -34 -118 -93 -131 -197 -21 -166 -109 -263 -260 -285
-38 -5 -54 -12 -54 -22 0 -38 156 -12 230 38 35 25 82 78 111 127 9 16 17 2
51 -86 36 -93 43 -104 67 -107 26 -3 26 -2 26 57 l0 61 39 0 c21 0 83 9 136
20 53 11 101 20 106 20 5 0 25 -32 44 -70 33 -65 57 -91 71 -77 3 3 -4 36 -15
75 -25 84 -26 92 -3 92 9 0 33 8 52 19 l36 19 83 -70 c55 -47 86 -67 92 -61 7
7 -19 68 -76 182 -72 144 -91 175 -120 193 -19 11 -35 28 -35 37 0 42 -58 56
-83 21 l-14 -21 -117 26 c-134 29 -186 31 -236 9z m468 -182 c3 -17 -2 -22
-17 -22 -14 0 -21 6 -21 18 0 38 33 41 38 4z"/>
</g>
</svg>
