<?xml version="1.0" standalone="no"?>
<!DOCTYPE svg PUBLIC "-//W3C//DTD SVG 20010904//EN"
 "http://www.w3.org/TR/2001/REC-SVG-20010904/DTD/svg10.dtd">
<svg version="1.0" xmlns="http://www.w3.org/2000/svg"
 width="104.146161pt" height="97.359500pt" viewBox="0 0 104.146161 97.359500"
 preserveAspectRatio="xMidYMid meet">
<metadata>
Created by potrace 1.16, written by Peter Selinger 2001-2019
</metadata>
<g transform="translate(7.422582,91.159500) scale(0.100000,-0.100000)"
fill="#000000" stroke="none">
<path d="M297 822 c-10 -10 -17 -32 -17 -48 0 -24 -13 -39 -65 -81 -109 -88
-123 -133 -42 -133 l43 0 71 -149 70 -148 -82 -6 c-46 -3 -100 -13 -121 -22
-73 -30 -134 -107 -149 -188 l-7 -37 343 0 c341 0 344 0 395 24 124 58 183
166 150 278 -32 109 -125 178 -243 178 l-61 0 -60 113 c-39 76 -61 129 -64
162 -4 30 -13 54 -24 62 -27 20 -34 16 -34 -17 0 -27 -3 -30 -30 -30 -27 0
-30 3 -30 30 0 34 -18 39 -43 12z m-9 -135 c4 -20 -25 -34 -40 -19 -15 15 -1
44 19 40 10 -2 19 -11 21 -21z m110 0 c4 -20 -25 -34 -40 -19 -15 15 -1 44 19
40 10 -2 19 -11 21 -21z m-168 -74 c0 -5 -4 -14 -9 -22 -7 -11 -11 -9 -20 8
-10 18 -9 21 9 21 11 0 20 -3 20 -7z m590 -398 c-25 -76 -100 -131 -208 -154
-31 -6 -155 -11 -297 -11 -215 0 -245 2 -245 15 0 24 25 67 55 95 26 25 29 25
263 31 258 7 309 16 391 67 42 25 46 26 49 10 2 -10 -2 -34 -8 -53z"/>
</g>
</svg>
