<?xml version="1.0" standalone="no"?>
<!DOCTYPE svg PUBLIC "-//W3C//DTD SVG 20010904//EN"
 "http://www.w3.org/TR/2001/REC-SVG-20010904/DTD/svg10.dtd">
<svg version="1.0" xmlns="http://www.w3.org/2000/svg"
 width="116.429845pt" height="113.306061pt" viewBox="0 0 116.429845 113.306061"
 preserveAspectRatio="xMidYMid meet">
<metadata>
Created by potrace 1.16, written by Peter Selinger 2001-2019
</metadata>
<g transform="translate(6.229845,106.106061) scale(0.100000,-0.100000)"
fill="#000000" stroke="none">
<path d="M767 975 c-45 -15 -82 -47 -105 -90 -15 -26 -17 -75 -20 -345 l-4
-315 -64 235 c-61 221 -65 243 -71 373 -7 161 -13 170 -74 111 -34 -34 -39
-36 -39 -17 0 31 -10 53 -25 53 -20 0 -205 -221 -205 -246 0 -13 11 -31 25
-42 24 -19 25 -23 25 -154 l0 -134 -36 -17 c-54 -26 -74 -79 -74 -204 l0 -103
-26 0 c-53 0 -82 -38 -52 -68 9 -9 117 -12 423 -12 406 0 411 0 455 23 50 25
86 72 96 124 6 31 -29 248 -91 566 -12 64 -12 67 5 62 48 -15 120 48 120 105
0 37 -30 81 -65 96 -43 18 -148 17 -198 -1z m-389 -138 c4 -20 -25 -34 -40
-19 -15 15 -1 44 19 40 10 -2 19 -11 21 -21z m-108 -74 c0 -5 -4 -14 -9 -22
-8 -12 -12 -12 -25 -2 -23 19 -20 31 9 31 14 0 25 -3 25 -7z m40 -55 c0 -16
-31 -48 -47 -48 -18 0 -16 16 5 39 19 22 42 27 42 9z"/>
</g>
</svg>
