<?xml version="1.0" standalone="no"?>
<!DOCTYPE svg PUBLIC "-//W3C//DTD SVG 20010904//EN"
 "http://www.w3.org/TR/2001/REC-SVG-20010904/DTD/svg10.dtd">
<svg version="1.0" xmlns="http://www.w3.org/2000/svg"
 width="109.400000pt" height="99.951113pt" viewBox="0 0 109.400000 99.951113"
 preserveAspectRatio="xMidYMid meet">
<metadata>
Created by potrace 1.16, written by Peter Selinger 2001-2019
</metadata>
<g transform="translate(6.200000,93.151144) scale(0.100000,-0.100000)"
fill="#000000" stroke="none">
<path d="M713 848 c-6 -7 -22 -36 -38 -64 l-27 -52 -47 21 c-65 31 -179 30
-239 -2 -50 -25 -54 -23 -88 51 -17 37 -44 55 -64 43 -6 -4 -10 -59 -10 -135
l0 -128 -95 -87 c-52 -48 -95 -94 -95 -101 0 -8 10 -14 25 -14 22 0 25 -4 25
-35 0 -80 59 -203 129 -269 27 -26 34 -28 56 -18 20 9 32 7 72 -13 117 -61
267 -53 380 18 29 19 44 22 57 15 52 -29 166 149 166 260 0 25 5 35 20 39 11
3 20 8 20 12 0 3 -43 49 -95 101 l-95 95 0 131 c0 111 -3 133 -16 138 -23 9
-30 8 -41 -6z m-174 -119 c55 -16 89 -45 74 -60 -10 -10 -20 -9 -48 4 -44 21
-120 22 -159 2 -35 -19 -56 -19 -56 -1 0 18 22 36 67 52 47 16 75 17 122 3z
m10 -100 c30 -18 32 -22 19 -35 -12 -13 -18 -12 -47 2 -30 15 -36 15 -74 0
-46 -18 -70 -8 -46 20 31 38 98 44 148 13z m-191 -72 c4 -20 -25 -34 -40 -19
-15 15 -1 44 19 40 10 -2 19 -11 21 -21z m309 12 c16 -16 5 -39 -17 -39 -23 0
-34 16 -26 35 6 18 28 19 43 4z m-65 -104 c22 -15 47 -40 56 -56 16 -27 21
-29 76 -29 l58 0 -7 -37 c-26 -144 -154 -253 -295 -253 -139 0 -270 112 -295
253 l-7 37 59 0 c53 0 61 3 71 24 12 28 64 69 107 85 48 17 131 6 177 -24z"/>
<path d="M434 409 c-4 -7 4 -31 16 -55 20 -36 22 -45 11 -58 -26 -32 -81 -14
-81 27 0 12 -6 17 -17 15 -26 -5 -18 -48 13 -75 28 -26 58 -29 93 -9 20 11 28
11 51 -2 48 -28 120 10 120 63 0 34 -25 32 -42 -2 -15 -32 -58 -42 -77 -19
-10 12 -8 22 10 54 32 54 22 72 -40 72 -27 0 -53 -5 -57 -11z"/>
</g>
</svg>
