<?xml version="1.0" standalone="no"?>
<!DOCTYPE svg PUBLIC "-//W3C//DTD SVG 20010904//EN"
 "http://www.w3.org/TR/2001/REC-SVG-20010904/DTD/svg10.dtd">
<svg version="1.0" xmlns="http://www.w3.org/2000/svg"
 width="118.449905pt" height="65.103844pt" viewBox="0 0 118.449905 65.103844"
 preserveAspectRatio="xMidYMid meet">
<metadata>
Created by potrace 1.16, written by Peter Selinger 2001-2019
</metadata>
<g transform="translate(6.090995,58.903844) scale(0.100000,-0.100000)"
fill="#000000" stroke="none">
<path d="M585 514 c-57 -15 -115 -37 -115 -43 0 -5 18 -20 40 -35 36 -24 48
-26 137 -26 89 0 102 2 136 25 20 14 37 30 37 34 0 25 -180 59 -235 45z"/>
<path d="M68 444 c-77 -41 -75 -169 2 -209 16 -8 32 -15 36 -15 4 0 24 19 46
42 30 33 41 39 51 29 9 -9 8 -18 -6 -43 -18 -31 -18 -31 8 -58 l25 -27 -21
-19 c-26 -23 -49 -74 -49 -109 0 -22 4 -25 39 -25 36 0 40 3 51 36 7 21 24 43
44 55 29 17 52 19 306 19 254 0 277 -2 307 -19 18 -12 37 -35 44 -55 12 -34
16 -36 57 -36 l44 0 -7 33 c-9 40 -29 80 -49 96 -23 19 -20 29 12 33 38 4 36
32 -4 36 -29 3 -32 7 -38 44 -11 70 -46 138 -70 138 -14 0 -17 3 -8 8 9 7 8
13 -7 26 -19 17 -21 17 -60 -10 -22 -16 -41 -33 -41 -39 0 -5 12 -45 26 -87
l26 -78 69 0 c62 0 69 -2 69 -20 0 -20 -5 -20 -317 -18 -275 3 -318 5 -318 18
0 11 16 16 64 20 l64 5 28 82 27 82 -31 24 c-18 13 -38 27 -45 31 -17 10 -58
-27 -83 -76 -11 -21 -23 -38 -27 -38 -4 0 -32 25 -62 56 -30 30 -67 62 -82 70
-34 18 -85 17 -120 -2z m79 -60 c3 -8 -1 -22 -9 -30 -13 -14 -17 -14 -32 1
-13 13 -14 20 -5 31 15 19 38 18 46 -2z"/>
<path d="M557 363 c-5 -8 -47 -142 -47 -149 0 -2 61 -4 135 -4 97 0 135 3 135
12 0 6 -10 42 -22 80 l-22 68 -87 0 c-48 0 -90 -3 -92 -7z"/>
</g>
</svg>
