<?xml version="1.0" standalone="no"?>
<!DOCTYPE svg PUBLIC "-//W3C//DTD SVG 20010904//EN"
 "http://www.w3.org/TR/2001/REC-SVG-20010904/DTD/svg10.dtd">
<svg version="1.0" xmlns="http://www.w3.org/2000/svg"
 width="116.129545pt" height="100.302645pt" viewBox="0 0 116.129545 100.302645"
 preserveAspectRatio="xMidYMid meet">
<metadata>
Created by potrace 1.16, written by Peter Selinger 2001-2019
</metadata>
<g transform="translate(6.113798,94.108032) scale(0.100000,-0.100000)"
fill="#000000" stroke="none">
<path d="M340 854 c-95 -41 -105 -69 -124 -365 -9 -136 -20 -260 -25 -276 -24
-83 -68 -130 -132 -141 -38 -6 -44 -11 -47 -35 -3 -26 -2 -27 45 -27 68 0 122
17 154 49 l27 27 25 -22 c57 -49 220 -56 326 -14 50 19 55 20 72 4 28 -25 89
-43 147 -44 52 0 53 1 50 27 -3 24 -9 29 -48 35 -24 4 -53 16 -63 27 -19 18
-18 19 32 66 34 32 64 74 89 124 37 75 37 75 38 209 l1 134 41 18 c46 21 68
49 77 102 6 30 4 39 -9 44 -32 12 -86 -7 -120 -42 l-33 -34 -17 26 c-19 28
-71 54 -111 54 -22 0 -25 -4 -25 -37 0 -50 30 -97 71 -112 72 -27 68 -21 53
-71 -21 -69 -75 -151 -121 -184 -24 -16 -45 -28 -47 -25 -2 2 -10 83 -16 179
-15 223 -30 262 -115 301 -49 23 -146 24 -195 3z m10 -194 c0 -13 -7 -20 -20
-20 -19 0 -27 20 -13 33 13 14 33 6 33 -13z m180 0 c0 -13 -7 -20 -20 -20 -19
0 -27 20 -13 33 13 14 33 6 33 -13z m-120 -55 c9 -11 16 -12 30 -2 27 16 37 1
15 -23 -15 -16 -16 -22 -5 -35 18 -22 53 -15 65 13 18 41 33 25 40 -44 10 -89
1 -153 -29 -211 -34 -64 -50 -83 -70 -83 -21 0 -20 11 6 62 23 43 36 146 25
190 -8 30 -53 47 -89 34 -50 -18 -51 -132 -2 -227 21 -42 22 -50 9 -55 -21 -8
-37 7 -68 65 -35 64 -47 132 -40 220 6 73 20 90 38 49 12 -28 47 -35 65 -13
11 13 10 19 -9 39 -11 12 -18 26 -14 29 10 11 19 8 33 -8z"/>
</g>
</svg>
