<?xml version="1.0" standalone="no"?>
<!DOCTYPE svg PUBLIC "-//W3C//DTD SVG 20010904//EN"
 "http://www.w3.org/TR/2001/REC-SVG-20010904/DTD/svg10.dtd">
<svg version="1.0" xmlns="http://www.w3.org/2000/svg"
 width="101.052236pt" height="113.746994pt" viewBox="0 0 101.052236 113.746994"
 preserveAspectRatio="xMidYMid meet">
<metadata>
Created by potrace 1.16, written by Peter Selinger 2001-2019
</metadata>
<g transform="translate(6.200000,108.046994) scale(0.100000,-0.100000)"
fill="#000000" stroke="none">
<path d="M167 1003 c-4 -3 -7 -120 -7 -259 l0 -253 -75 -90 c-41 -49 -75 -94
-75 -100 0 -7 31 -11 89 -11 l88 0 7 -60 c9 -76 52 -143 120 -185 45 -27 57
-30 135 -30 64 0 96 5 124 19 82 41 136 123 137 208 l0 47 82 3 c45 2 83 8 84
13 2 6 -30 48 -71 95 l-75 85 0 257 c0 252 0 257 -21 263 -28 9 -38 -4 -79
-95 -18 -41 -36 -79 -40 -83 -4 -5 -33 -1 -65 9 -65 18 -147 14 -195 -11 l-29
-15 -41 86 c-22 48 -40 90 -40 94 0 15 -42 25 -53 13z m151 -336 c4 -20 -25
-34 -40 -19 -15 15 -1 44 19 40 10 -2 19 -11 21 -21z m309 12 c16 -16 5 -39
-17 -39 -23 0 -34 16 -26 35 6 18 28 19 43 4z m-132 -90 c104 -29 135 -84 135
-244 0 -87 -4 -119 -19 -152 -21 -45 -75 -87 -128 -98 -66 -13 -155 32 -188
96 -21 39 -21 268 -1 307 20 39 59 72 103 87 47 17 49 17 98 4z"/>
<path d="M394 449 c-4 -7 4 -31 16 -55 20 -36 22 -45 11 -58 -23 -27 -61 -20
-74 14 -15 39 -37 39 -37 1 0 -20 9 -36 26 -50 31 -24 58 -26 94 -8 21 11 29
11 47 -1 49 -31 123 9 123 65 0 32 -26 29 -42 -4 -16 -34 -56 -43 -75 -18 -10
15 -8 25 14 62 21 37 24 47 12 54 -20 13 -107 11 -115 -2z"/>
</g>
</svg>
