<?xml version="1.0" standalone="no"?>
<!DOCTYPE svg PUBLIC "-//W3C//DTD SVG 20010904//EN"
 "http://www.w3.org/TR/2001/REC-SVG-20010904/DTD/svg10.dtd">
<svg version="1.0" xmlns="http://www.w3.org/2000/svg"
 width="91.408632pt" height="109.581373pt" viewBox="0 0 91.408632 109.581373"
 preserveAspectRatio="xMidYMid meet">
<metadata>
Created by potrace 1.16, written by Peter Selinger 2001-2019
</metadata>
<g transform="translate(6.199506,103.575598) scale(0.100000,-0.100000)"
fill="#000000" stroke="none">
<path d="M70 959 c-18 -4 -40 -15 -47 -25 -20 -28 -16 -114 7 -151 19 -32 22
-33 84 -33 81 0 163 -29 211 -74 38 -36 44 -65 18 -91 -17 -17 -34 -17 -108 6
-52 15 -113 -1 -160 -42 -40 -35 -42 -48 -16 -104 18 -39 314 -427 330 -433
14 -5 302 365 334 428 l28 55 -39 37 c-22 20 -58 42 -81 48 -42 11 -107 5
-117 -11 -11 -19 -63 -9 -79 15 -45 68 91 156 242 156 61 0 64 1 83 33 22 35
27 115 10 147 -21 40 -132 45 -177 8 -8 -6 -32 -2 -72 12 -50 19 -75 22 -148
18 -54 -3 -100 -11 -118 -20 -28 -15 -32 -15 -60 2 -38 22 -81 29 -125 19z
m82 -68 c10 -9 -61 -83 -72 -76 -6 4 -10 24 -10 45 0 28 5 40 18 43 18 5 53
-1 64 -12z m559 -1 c11 0 12 -77 1 -84 -5 -3 -26 13 -47 34 l-38 39 24 10 c13
5 30 8 37 5 8 -2 18 -4 23 -4z m-503 -403 c4 -20 -25 -34 -40 -19 -15 15 -1
44 19 40 10 -2 19 -11 21 -21z m420 0 c4 -20 -25 -34 -40 -19 -15 15 -1 44 19
40 10 -2 19 -11 21 -21z m-158 -84 c0 -5 -12 -26 -25 -48 -40 -64 -32 -95 28
-109 31 -7 36 -24 10 -32 -10 -3 -26 -10 -35 -15 -25 -13 -25 -13 -37 22 l-11
31 -26 -21 c-34 -27 -87 -29 -82 -3 2 9 13 18 26 20 12 2 29 13 37 25 13 19
12 25 -15 74 -17 29 -30 55 -30 58 0 3 36 5 80 5 44 0 80 -3 80 -7z"/>
</g>
</svg>
