<?xml version="1.0" standalone="no"?>
<!DOCTYPE svg PUBLIC "-//W3C//DTD SVG 20010904//EN"
 "http://www.w3.org/TR/2001/REC-SVG-20010904/DTD/svg10.dtd">
<svg version="1.0" xmlns="http://www.w3.org/2000/svg"
 width="115.523888pt" height="85.172501pt" viewBox="0 0 115.523888 85.172501"
 preserveAspectRatio="xMidYMid meet">
<metadata>
Created by potrace 1.16, written by Peter Selinger 2001-2019
</metadata>
<g transform="translate(5.839646,77.972501) scale(0.100000,-0.100000)"
fill="#000000" stroke="none">
<path d="M535 677 c-55 -19 -131 -46 -169 -61 -70 -27 -85 -25 -86 11 0 15
-58 63 -76 63 -11 0 -14 -16 -14 -70 0 -68 -1 -70 -43 -114 -27 -28 -60 -81
-91 -149 -72 -155 -65 -165 122 -188 56 -7 102 -15 102 -18 0 -3 -7 -31 -15
-61 -22 -83 -25 -80 63 -80 l77 0 24 61 23 61 37 -5 c20 -3 91 -11 159 -18 90
-9 121 -16 118 -25 -3 -7 -8 -29 -12 -48 l-6 -36 78 0 79 0 60 152 c55 139 60
159 60 228 0 60 -6 86 -26 130 -55 116 -165 190 -293 197 -60 3 -86 -2 -171
-30z m-320 -277 c0 -8 -10 -16 -22 -18 -18 -3 -23 2 -23 18 0 16 5 21 23 18
12 -2 22 -10 22 -18z"/>
</g>
</svg>
