<?xml version="1.0" encoding="UTF-8" standalone="no"?>
<svg
   width="64"
   height="64"
   version="1.0"
   viewBox="0 0 48 48.000225"
   id="svg2"
   sodipodi:docname="favicon.svg"
   inkscape:version="1.3.2 (091e20e, 2023-11-25)"
   xmlns:inkscape="http://www.inkscape.org/namespaces/inkscape"
   xmlns:sodipodi="http://sodipodi.sourceforge.net/DTD/sodipodi-0.dtd"
   xmlns="http://www.w3.org/2000/svg"
   xmlns:svg="http://www.w3.org/2000/svg">
  <defs
     id="defs2" />
  <sodipodi:namedview
     id="namedview2"
     pagecolor="#ffffff"
     bordercolor="#000000"
     borderopacity="0.25"
     inkscape:showpageshadow="2"
     inkscape:pageopacity="0.0"
     inkscape:pagecheckerboard="0"
     inkscape:deskcolor="#d1d1d1"
     inkscape:zoom="4.6499507"
     inkscape:cx="72.903999"
     inkscape:cy="70.753439"
     inkscape:window-width="1392"
     inkscape:window-height="997"
     inkscape:window-x="1815"
     inkscape:window-y="25"
     inkscape:window-maximized="0"
     inkscape:current-layer="svg2" />
  <path
     d="M 21.06946,0.30224829 C 16.37049,1.5602169 12.176787,5.0196309 10.155725,9.3701055 9.1451935,11.466719 8.7915075,11.833627 7.5283435,11.833627 c -4.042124,0 -5.8610798,5.975351 -2.829487,9.120272 l 1.162111,1.205553 -2.172642,2.463522 c -2.223168,2.568353 -3.688438,6.342258 -3.688438,9.48718 0,5.08429 3.334752,10.483072 7.781089,12.632102 2.5263285,1.205553 2.9305405,1.257969 16.6232365,1.257969 13.894802,0 14.046381,0 16.471656,-1.310385 4.648443,-2.411106 7.124244,-6.761581 7.124244,-12.579686 0,-4.140813 -0.960004,-6.866412 -3.486332,-9.801672 l -1.566323,-1.886953 1.162111,-0.78623 c 3.789491,-2.568353 2.324221,-9.801672 -1.970536,-9.801672 -0.909478,0 -1.46527,-0.57657 -2.475801,-2.6207676 -2.627381,-5.398782 -7.528456,-8.75336511 -13.49059,-9.17268791 -1.717902,-0.10483071 -4.042124,0 -5.103182,0.2620768 M 33.852678,15.240624 c 2.627381,2.411108 2.93054,5.922937 0.707372,8.386459 l -1.162111,1.310384 h 1.364216 c 0.757899,0 2.273696,0.471738 3.435806,0.995891 6.720032,3.197337 6.770559,12.841764 0.101053,16.248762 -2.071589,1.048307 -3.031593,1.100722 -14.096908,1.100722 -10.458997,0 -12.075846,-0.157245 -13.894802,-0.995891 C 4.9514895,39.771013 3.3851665,32.747355 7.2251845,28.239634 8.9430875,26.195435 11.317835,24.937467 13.338897,24.937467 h 1.263164 l -1.212638,-1.886953 c -1.46527,-2.253861 -1.566323,-3.354584 -0.505265,-5.660859 1.46527,-3.144922 2.576854,-3.51183 11.671635,-3.354583 7.376876,0.157245 8.286354,0.262077 9.296885,1.205552"
     id="path1"
     style="stroke-width:0.514623" />
  <path
     d="m 17.532602,17.913809 c -0.808425,0.838646 -0.353686,2.306275 0.707372,2.306275 0.757898,0 1.010531,-0.262077 0.858951,-1.153138 -0.15158,-1.153137 -0.960005,-1.729706 -1.566323,-1.153137 m 12.328479,0.419322 c -0.808425,0.995892 -0.30316,1.886953 1.010531,1.886953 0.757898,0 1.010531,-0.314492 0.858951,-1.153138 -0.202106,-1.415214 -1.061058,-1.729706 -1.869482,-0.733815 m -9.650572,7.023658 c 0,0.524154 0.808425,1.729707 1.768429,2.725599 1.61685,1.624876 1.76843,2.044198 1.76843,4.822213 0,3.354583 -0.30316,3.61666 -2.627381,1.939368 -1.061058,-0.78623 -1.667376,-0.943476 -2.021062,-0.576569 -1.263164,1.310384 2.374748,3.773906 5.507394,3.773906 2.475801,0 5.406341,-1.624876 5.608448,-3.092506 0.202106,-1.362799 -0.606319,-1.415215 -2.273695,-0.05242 -0.707372,0.576569 -1.515797,1.048307 -1.717903,1.048307 -0.252633,0 -0.454739,-1.3628 -0.454739,-3.040091 0,-2.778015 0.15158,-3.197337 1.768429,-4.822213 0.960005,-0.995892 1.76843,-2.096614 1.76843,-2.411107 0,-1.46763 -1.212638,-1.257969 -2.981067,0.524154 L 24.45474,28.082387 22.736837,26.24785 c -1.920009,-2.0442 -2.526328,-2.253861 -2.526328,-0.891062"
     id="path2"
     style="stroke-width:0.514623" />
</svg>
